<?xml version="1.0" encoding="UTF-8" standalone="no"?>
<svg
   xmlns:dc="http://purl.org/dc/elements/1.1/"
   xmlns:cc="http://creativecommons.org/ns#"
   xmlns:rdf="http://www.w3.org/1999/02/22-rdf-syntax-ns#"
   xmlns:svg="http://www.w3.org/2000/svg"
   xmlns="http://www.w3.org/2000/svg"
   xmlns:sodipodi="http://sodipodi.sourceforge.net/DTD/sodipodi-0.dtd"
   xmlns:inkscape="http://www.inkscape.org/namespaces/inkscape"
   width="174.80801mm"
   height="73.361259mm"
   viewBox="0 0 174.80801 73.361259"
   version="1.1"
   id="svg1049"
   inkscape:version="1.0.2 (e86c870879, 2021-01-15, custom)"
   sodipodi:docname="Joseph Watson manicule, No. 246, pointing right.svg">
  <defs
     id="defs1043" />
  <sodipodi:namedview
     id="base"
     pagecolor="#ffffff"
     bordercolor="#666666"
     borderopacity="1.0"
     inkscape:pageopacity="0.0"
     inkscape:pageshadow="2"
     inkscape:zoom="0.35"
     inkscape:cx="-861.33254"
     inkscape:cy="-165.56352"
     inkscape:document-units="mm"
     inkscape:current-layer="layer1"
     inkscape:document-rotation="0"
     showgrid="false"
     inkscape:window-width="1920"
     inkscape:window-height="1057"
     inkscape:window-x="-8"
     inkscape:window-y="-8"
     inkscape:window-maximized="1" />
  <metadata
     id="metadata1046">
    <rdf:RDF>
      <cc:Work
         rdf:about="">
        <dc:format>image/svg+xml</dc:format>
        <dc:type
           rdf:resource="http://purl.org/dc/dcmitype/StillImage" />
        <dc:title></dc:title>
      </cc:Work>
    </rdf:RDF>
  </metadata>
  <g
     inkscape:label="Layer 1"
     inkscape:groupmode="layer"
     id="layer1"
     transform="translate(-157.08702,-98.762291)">
    <path
       style="fill:#000000;stroke-width:0.184707"
       d="m 171.30938,171.64191 c -0.81272,-0.28209 -1.97637,-0.79042 -2.58591,-1.12961 -2.48936,-1.38526 -2.79185,-1.49306 -4.20118,-1.49734 -0.95648,-0.003 -1.57794,-0.11332 -2.17122,-0.38583 -0.45715,-0.20997 -1.36496,-0.45918 -2.01736,-0.5538 -1.59414,-0.23121 -2.10573,-0.66082 -1.30028,-1.09188 0.30019,-0.16066 0.58553,-0.10581 1.40763,0.27056 0.56711,0.25963 1.22887,0.47206 1.47057,0.47206 0.53358,0 0.59293,-0.48051 0.0795,-0.64347 -0.19799,-0.0628 -0.41512,-0.29702 -0.48252,-0.5204 -0.0674,-0.22338 -0.32909,-0.62692 -0.58152,-0.89675 -0.86735,-0.92715 -0.0989,-1.64642 1.05459,-0.98705 0.49963,0.28561 1.10901,0.36188 1.10698,0.13853 -7e-4,-0.0762 -0.30719,-0.34632 -0.68111,-0.60029 -0.75036,-0.50966 -1.15955,-0.90689 -1.84276,-1.78888 -0.39504,-0.50997 -0.46067,-0.80179 -0.49311,-2.19243 l -0.0374,-1.60415 -0.68866,-0.57818 c -0.37876,-0.318 -0.68866,-0.68541 -0.68865,-0.81648 1e-5,-0.13106 -0.34107,-0.55323 -0.75795,-0.93816 -0.7493,-0.69189 -0.75826,-0.71551 -0.785,-2.07055 l -0.027,-1.37067 0.56165,-0.055 c 0.45835,-0.0449 0.71317,0.0993 1.38531,0.78361 0.45301,0.46124 0.95893,0.83924 1.12427,0.84001 0.37994,0.002 0.75439,0.44861 0.99207,1.18388 0.19866,0.61458 0.57138,0.62737 0.5282,0.0181 -0.0839,-1.18307 -0.57313,-2.95532 -0.81587,-2.95532 -0.14641,0 -0.29339,0.19187 -0.32663,0.42637 -0.049,0.34567 -0.11017,0.38509 -0.32324,0.20827 -0.14453,-0.11995 -0.2628,-0.43716 -0.2628,-0.7049 0,-0.26774 -0.21402,-0.88883 -0.4756,-1.38022 -0.64323,-1.20831 -1.48708,-3.85499 -1.64024,-5.14455 -0.11132,-0.93724 -0.0736,-1.12973 0.34103,-1.7399 0.37822,-0.5566 0.44649,-0.82986 0.36176,-1.44806 -0.0889,-0.64894 -0.0281,-0.85271 0.41017,-1.37356 0.48988,-0.5822 0.50346,-0.64836 0.28254,-1.37698 -0.53443,-1.7626 -1.02829,-5.21627 -0.85725,-5.99499 0.12154,-0.5534 0.53004,-0.87183 0.85823,-0.66899 0.094,0.0581 0.29616,0.40553 0.44934,0.77213 0.61035,1.46077 0.91896,-0.24666 0.47558,-2.63124 -0.33906,-1.82354 -0.35989,-3.21858 -0.0593,-3.97121 0.14202,-0.35555 0.2711,-1.15173 0.28685,-1.76927 0.0233,-0.9139 0.12314,-1.24667 0.53658,-1.78857 0.27937,-0.36617 0.50795,-0.73829 0.50795,-0.82692 0,-0.0886 0.21525,-0.44743 0.47835,-0.79733 0.26309,-0.3499 0.67199,-1.05178 0.90867,-1.55972 0.23668,-0.50794 0.62661,-1.21445 0.86651,-1.57001 0.23992,-0.35556 0.53854,-0.99202 0.66363,-1.41435 0.21212,-0.7162 1.27758,-1.91038 1.70447,-1.91038 0.0967,0 0.29024,-0.27389 0.4301,-0.60864 0.17047,-0.40798 0.59252,-0.81361 1.2802,-1.23039 0.56424,-0.34196 1.33573,-1.02804 1.71443,-1.52463 0.90482,-1.18647 1.44756,-1.45632 2.64402,-1.31462 0.52545,0.0622 1.43179,0.008 2.04631,-0.12239 1.03829,-0.22034 1.19673,-0.20429 2.69645,0.27326 l 1.59334,0.50735 1.04536,-0.51742 c 0.57494,-0.28457 1.60631,-0.87445 2.29193,-1.31084 0.68561,-0.43638 1.55835,-0.96461 1.93942,-1.17384 0.38108,-0.20923 0.97174,-0.5562 1.3126,-0.77105 0.34086,-0.21484 0.92268,-0.45545 1.29295,-0.53469 0.37027,-0.0792 1.00568,-0.23052 1.41204,-0.33618 0.57531,-0.14959 0.93187,-0.12895 1.61108,0.0932 0.92089,0.30123 1.50251,0.8996 2.42676,2.49668 0.40223,0.69502 0.44792,0.88997 0.24757,1.05624 -0.19022,0.15787 -0.39275,0.028 -0.89702,-0.57528 -0.48072,-0.5751 -0.87744,-0.83967 -1.51456,-1.01008 -1.16366,-0.31123 -1.19332,-0.30474 -1.2681,0.27706 l -0.0653,0.50795 -0.36258,-0.59913 c -0.44603,-0.73703 -0.8338,-0.75518 -1.96612,-0.092 -0.82508,0.48323 -1.44549,0.98937 -3.81142,3.10952 -1.19691,1.07257 -3.26727,2.68504 -3.84339,2.99336 -0.21346,0.11424 -0.49696,0.48103 -0.62999,0.81507 -0.13303,0.33405 -0.5935,1.35542 -1.02326,2.26972 -0.42976,0.91431 -0.92184,2.11952 -1.09351,2.67826 -0.17167,0.55874 -0.39205,1.23099 -0.48973,1.49387 -0.0977,0.26289 -0.20518,1.01096 -0.23888,1.66237 -0.0337,0.65141 -0.12278,1.50246 -0.19793,1.89123 -0.12182,0.63013 -0.18456,0.69482 -0.57815,0.59603 -0.35575,-0.0893 -0.4768,-0.0179 -0.62325,0.36725 -0.1,0.26293 -0.18176,0.72746 -0.18176,1.03229 0,0.30484 -0.0725,0.69423 -0.1611,0.86534 -0.27434,0.52977 -0.43765,2.06581 -0.21963,2.06581 0.10781,0 0.19602,-0.20289 0.19602,-0.45087 0,-0.24797 0.0729,-0.49591 0.16199,-0.55098 0.13668,-0.0845 0.50371,-1.21639 0.68382,-2.10892 0.0275,-0.13629 0.10841,-0.30253 0.17979,-0.36941 0.0714,-0.0669 0.0744,0.1693 0.007,0.52486 -0.0677,0.35557 -0.19346,1.10363 -0.27945,1.66237 -0.36256,2.35597 -0.97318,5.41111 -1.22302,6.11925 -0.14774,0.41875 -0.26863,1.04514 -0.26863,1.39197 0,0.34684 -0.16624,0.95646 -0.36941,1.35472 -0.22973,0.4503 -0.36941,1.08863 -0.36941,1.68807 0,0.53018 -0.0974,1.23334 -0.21647,1.56258 -0.1673,0.46264 -0.1625,1.02199 0.0211,2.46261 0.21717,1.70412 0.41226,2.25854 0.6952,1.97561 0.23023,-0.23023 0.5897,-2.97149 0.48747,-3.71735 -0.0933,-0.68096 -0.057,-0.80872 0.25803,-0.90873 0.27702,-0.0879 0.39266,-0.33614 0.47312,-1.01547 0.0586,-0.4945 0.27771,-1.21856 0.48697,-1.609 0.20927,-0.39045 0.38048,-0.89177 0.38048,-1.11406 0,-0.22228 0.20823,-0.65161 0.46271,-0.95405 0.25449,-0.30244 0.51697,-0.82831 0.58329,-1.16859 0.0663,-0.34029 0.31525,-0.90813 0.55318,-1.26187 0.23793,-0.35375 0.43555,-0.8109 0.43915,-1.01589 0.003,-0.20499 0.13322,-0.58051 0.28803,-0.83448 0.27978,-0.45897 0.28093,-0.45758 0.18978,0.23088 -0.0505,0.38096 -0.0198,0.69265 0.068,0.69265 0.16234,0 1.12805,-1.92829 1.38755,-2.77061 0.14159,-0.4596 0.33902,-0.73432 1.79206,-2.49354 0.41954,-0.50795 0.96107,-1.35617 1.2034,-1.88494 0.24233,-0.52877 0.66163,-1.12241 0.93179,-1.3192 0.40609,-0.29582 0.45145,-0.40568 0.26184,-0.63415 -0.33039,-0.39809 -0.0748,-1.71805 0.45445,-2.34703 0.23948,-0.28461 0.43727,-0.58859 0.43953,-0.67552 0.006,-0.20453 0.72519,-1.12787 0.73061,-0.93711 0.002,0.0794 -0.11557,0.43089 -0.26184,0.78097 -0.76622,1.83381 1.37421,-0.0654 3.25113,-2.88475 0.73667,-1.10654 1.40814,-2.0119 1.49217,-2.0119 0.084,0 0.32829,-0.29744 0.54279,-0.661 0.28158,-0.47724 0.48582,-0.63594 0.73465,-0.57087 0.49796,0.13021 2.16563,-0.62433 2.29739,-1.03946 0.0821,-0.25862 0.16615,-0.29724 0.31752,-0.14587 0.15116,0.15116 0.15133,0.35041 5.5e-4,0.74962 -0.16339,0.43289 -0.14477,0.67715 0.0913,1.19802 0.1631,0.35985 0.35292,0.65428 0.4218,0.65428 0.17934,0 0.38634,-1.54242 0.25347,-1.88868 -0.0613,-0.15974 -0.0227,-0.34532 0.0858,-0.41239 0.10851,-0.0671 0.19729,0.003 0.19729,0.15734 0,0.39059 0.39691,1.22019 0.58378,1.22019 0.0853,0 0.15506,-0.16133 0.15506,-0.35851 0,-0.65353 0.34641,-0.58546 0.53721,0.10556 0.10327,0.37403 0.14797,0.74444 0.0993,0.82315 -0.0487,0.0787 0.006,0.20105 0.11993,0.27188 0.36106,0.22315 0.53057,-0.34428 0.41073,-1.37487 -0.0937,-0.80608 -0.0665,-0.97838 0.14358,-0.90921 0.15594,0.0513 0.29604,0.44192 0.35159,0.98023 0.11153,1.08066 0.55413,1.38069 0.55413,0.37564 0,-0.74044 -0.47691,-1.83047 -0.73191,-1.67287 -0.19332,0.11952 -0.93038,-0.77095 -0.93038,-1.12413 0,-0.13608 -0.24935,-0.37635 -0.55412,-0.53395 -0.33182,-0.1716 -0.55412,-0.43284 -0.55412,-0.65123 0,-0.5631 0.60432,-0.44785 1.47766,0.28181 0.42557,0.35556 0.84005,0.64648 0.92103,0.64648 0.32683,0 2.07672,1.76025 2.42124,2.43557 0.20271,0.39734 0.48487,0.76708 0.62703,0.82163 0.14216,0.0545 1.61375,-0.56404 3.27021,-1.37465 10.32444,-5.05236 10.98787,-5.34852 15.11007,-6.74534 1.06668,-0.36145 2.72905,-0.86204 3.69414,-1.11241 0.9651,-0.25036 1.96252,-0.53937 2.21649,-0.64224 1.00581,-0.40737 2.40939,-0.77105 2.99002,-0.77475 0.33647,-0.002 1.1936,-0.21932 1.90472,-0.48262 0.71112,-0.26331 2.04101,-0.62415 2.95532,-0.80187 0.9143,-0.17773 1.87016,-0.4109 2.12413,-0.51815 0.25397,-0.10726 1.20983,-0.41704 2.12414,-0.68841 0.91429,-0.27136 2.16692,-0.65219 2.78362,-0.84629 0.6167,-0.1941 1.29654,-0.35291 1.51078,-0.35291 0.21422,0 1.24734,-0.27924 2.29582,-0.62053 7.95826,-2.590546 9.08134,-2.728464 16.83823,-2.067812 3.67825,0.313275 4.66057,0.33353 7.66535,0.158052 2.14637,-0.125347 4.49158,-0.14347 6.21706,-0.04804 1.52383,0.08427 4.47453,0.244764 6.55711,0.356643 2.08257,0.111878 4.2852,0.282865 4.89474,0.379979 0.60953,0.09711 1.44338,0.177188 1.853,0.177948 0.40961,7e-4 1.19923,0.12827 1.75472,0.28333 1.72601,0.4818 4.55355,0.81968 8.45621,1.01046 2.57846,0.12604 4.19618,0.29593 5.1718,0.54309 0.78083,0.19782 2.47697,0.56885 3.7692,0.82451 1.29222,0.25566 2.58054,0.57957 2.86296,0.71981 0.2824,0.14024 1.17841,0.39572 1.99112,0.56775 1.83002,0.38735 4.19228,0.98909 5.17181,1.31741 0.40635,0.1362 1.16785,0.33474 1.69221,0.44121 0.52436,0.10646 1.3971,0.3622 1.93943,0.56833 0.54232,0.20612 1.17069,0.37481 1.39636,0.37486 0.22568,6e-5 0.89063,0.21365 1.47766,0.47467 0.58703,0.261 1.85696,0.62754 2.82206,0.81452 2.07911,0.40281 6.01473,1.42538 6.5137,1.69242 0.8545,0.45732 1.14736,2.59916 0.52147,3.81383 -0.75863,1.4723 -1.8304,2.12962 -4.72633,2.89867 -2.67395,0.7101 -10.22746,0.46323 -14.31482,-0.46783 -1.37145,-0.31241 -3.03381,-0.74858 -3.69414,-0.96927 -1.14466,-0.38257 -1.52332,-0.40174 -8.12712,-0.41124 -5.47199,-0.008 -7.35319,-0.0743 -8.95831,-0.31637 -5.56204,-0.83876 -7.73152,-0.94268 -9.78948,-0.46895 -2.00071,0.46056 -3.14059,0.66327 -5.54121,0.98546 -1.21907,0.16361 -2.923,0.42373 -3.7865,0.57804 -0.86351,0.15431 -2.084,0.33567 -2.71222,0.40303 -0.6282,0.0674 -1.19758,0.17785 -1.26526,0.24554 -0.21944,0.21944 0.0888,0.48589 0.70104,0.60596 0.329,0.0645 0.76441,0.182 0.9676,0.26105 0.80306,0.31245 2.82386,0.97738 3.78649,1.24592 0.55874,0.15587 1.14057,0.38688 1.29295,0.51335 0.15239,0.12648 0.73422,0.46181 1.29295,0.7452 1.10343,0.55963 3.06868,1.7241 4.00384,2.37239 0.32272,0.22372 1.06574,0.69735 1.65116,1.0525 1.23939,0.7519 2.04204,1.36207 3.67071,2.79046 0.64907,0.56925 1.43054,1.13873 1.7366,1.2655 0.61906,0.25642 1.12949,1.10067 1.57744,2.60908 0.37554,1.2646 0.36933,2.63121 -0.0169,3.70877 l -0.30845,0.86065 0.52133,0.61701 c 0.28673,0.33935 0.72441,1.07415 0.97262,1.6329 0.6229,1.40219 0.51817,2.51476 -0.36515,3.87885 -0.83407,1.28802 -1.34318,1.74453 -2.26844,2.03407 -0.40636,0.12716 -1.19598,0.38825 -1.75471,0.58019 -0.55875,0.19194 -1.68084,0.42461 -2.49356,0.51704 -1.78517,0.20304 -2.02147,0.28631 -2.38443,0.84025 -0.76636,1.16961 -5.35541,3.74731 -7.86682,4.41883 -0.48673,0.13015 -0.90773,0.37455 -1.01589,0.58976 -0.10158,0.20213 -0.53719,0.90791 -0.968,1.56839 -0.71905,1.10238 -0.92359,1.27371 -2.49355,2.08865 -1.86905,0.97019 -3.2381,1.40057 -4.45531,1.40057 -0.63954,0 -0.88961,0.10711 -1.33012,0.56976 -0.61943,0.65054 -1.79314,1.47628 -2.90378,2.04289 -2.21172,1.12834 -4.98421,1.63561 -8.93934,1.63561 -2.72925,0 -3.75503,0.17557 -6.57383,1.12516 -0.86972,0.29299 -1.20935,0.32599 -1.77819,0.17283 -0.70604,-0.19012 -1.41687,-0.74406 -1.78786,-1.39325 -0.19353,-0.33865 -0.23277,-0.33642 -1.3853,0.0788 -2.87994,1.03767 -5.20471,1.46292 -11.43739,2.09216 -2.98496,0.30135 -12.30578,0.30553 -14.49952,0.006 -0.9143,-0.12462 -2.49355,-0.31641 -3.50944,-0.42618 -1.01589,-0.10977 -3.40075,-0.48574 -5.29968,-0.83547 -1.89893,-0.34974 -3.62189,-0.63588 -3.82879,-0.63588 -0.20689,0 -0.99519,-0.2078 -1.75176,-0.46177 -1.61032,-0.54057 -1.79961,-0.55375 -2.58675,-0.18023 -0.50473,0.23951 -0.65674,0.48078 -1.01831,1.61618 -0.56974,1.78916 -1.53193,3.34108 -2.47532,3.99249 -0.4242,0.29291 -1.02968,0.81214 -1.34549,1.15385 -1.07666,1.16495 -4.5944,4.15841 -5.89055,5.01263 -0.95477,0.62924 -1.89685,1.03442 -3.60179,1.54911 -2.2981,0.69376 -2.32603,0.69723 -6.00299,0.74706 -3.62357,0.0491 -3.72238,0.0403 -5.1718,-0.46283 z m 7.2536,-0.81045 c -0.11416,-0.34249 -0.51179,-0.39929 -0.51179,-0.0731 0,0.16085 0.1316,0.29245 0.29245,0.29245 0.16085,0 0.25956,-0.0987 0.21934,-0.21934 z m -6.57331,-1.02693 c -0.22466,-0.27965 -0.4985,-0.68392 -0.60853,-0.89839 -0.16359,-0.31889 -1.22089,-0.99536 -1.55569,-0.99536 -0.25376,0 -0.024,0.5477 0.39324,0.93752 0.26361,0.24628 0.60044,0.68064 0.74849,0.96526 0.29428,0.56571 0.97731,0.92698 1.25599,0.66433 0.10831,-0.10208 0.0193,-0.35864 -0.2335,-0.67336 z m 3.29091,0.12106 c 0,-0.45825 -1.58785,-2.26737 -1.84862,-2.10621 -0.37642,0.23264 -0.15817,0.72463 0.6674,1.50446 0.85591,0.80848 1.18122,0.97421 1.18122,0.60175 z m -2.28865,-0.58333 c -0.2689,-0.33017 -0.56181,-0.76995 -0.6509,-0.9773 -0.23008,-0.53548 -0.70238,-0.88316 -1.0293,-0.7577 -0.51039,0.19585 -0.28955,0.65142 0.55599,1.14694 0.45946,0.26927 0.91954,0.6468 1.02238,0.83896 0.10285,0.19217 0.27784,0.3494 0.38887,0.3494 0.11104,0 -0.0181,-0.27013 -0.28704,-0.6003 z m 4.13572,-1.71448 c 0,-0.69537 -1.32303,-2.70381 -1.59918,-2.42765 -0.14559,0.14559 0.68983,1.75303 0.96619,1.85908 0.14497,0.0556 0.26358,0.26999 0.26358,0.47635 0,0.20637 0.0831,0.37522 0.18471,0.37522 0.10159,0 0.1847,-0.12735 0.1847,-0.283 z m -5.76039,-1.79496 c -0.0369,-0.38204 -0.1577,-0.60029 -0.33242,-0.60029 -0.35431,0 -0.46736,0.586 -0.17987,0.9324 0.36592,0.4409 0.57382,0.30612 0.51229,-0.33211 z m -1.25848,0.34622 c 0,-0.0382 -0.20675,-0.53686 -0.45944,-1.10824 -0.41126,-0.92992 -0.8457,-1.29253 -1.07873,-0.90034 -0.13684,0.2303 1.00034,2.07795 1.27894,2.07795 0.14257,0 0.25923,-0.0312 0.25923,-0.0694 z m -1.84707,-0.58894 c 0,-0.60542 -0.92245,-2.27108 -1.47605,-2.66527 -0.31735,-0.22597 -0.61871,-0.36915 -0.6697,-0.31817 -0.051,0.051 0.0785,0.41207 0.2877,0.80243 0.40049,0.74722 0.48329,1.17696 0.22679,1.17696 -0.19965,0 -1.23743,-1.61935 -1.42047,-2.21649 -0.26447,-0.86283 -0.70462,-1.32511 -1.66672,-1.7506 -0.5281,-0.23355 -1.01729,-0.51704 -1.08709,-0.62997 -0.0698,-0.11293 -0.28823,-0.20533 -0.48541,-0.20533 -0.73561,0 -0.31252,1.2721 0.92149,2.77061 0.37646,0.45715 0.74313,0.98853 0.81482,1.18085 0.0717,0.19233 0.17877,0.30127 0.23792,0.24211 0.12455,-0.12455 -0.43753,-1.71189 -0.7964,-2.24906 -0.30175,-0.4517 -0.3189,-1.07693 -0.0269,-0.97959 0.11909,0.0397 0.49967,0.60768 0.84573,1.26217 0.34607,0.6545 0.91802,1.62637 1.27101,2.15971 0.54024,0.81627 0.73062,0.96971 1.20309,0.96971 0.30871,0 0.77263,0.16624 1.03093,0.36941 0.56499,0.44443 0.78923,0.46731 0.78923,0.0805 z m 5.81725,-0.45106 c -0.37684,-0.4164 -0.52751,-0.38778 -0.35298,0.067 0.064,0.16693 0.24514,0.3035 0.40239,0.3035 0.24168,0 0.23403,-0.0573 -0.0494,-0.37055 z m 11.17658,-0.73504 c -0.23932,-0.83445 -1.12852,-2.03444 -1.50754,-2.03444 -0.38634,0 -0.70921,-0.65592 -0.71057,-1.4435 -7e-4,-0.47502 -0.73016,-2.48911 -0.99854,-2.75749 -0.22775,-0.22775 -0.48108,0.39792 -0.37182,0.91829 0.11885,0.56596 -0.0565,1.30355 -0.27753,1.16698 -0.2702,-0.16699 -0.3932,-2.306 -0.15457,-2.68809 0.17588,-0.28163 0.1754,-0.40742 -0.002,-0.58503 -0.12444,-0.12444 -0.22626,-0.49037 -0.22626,-0.81318 0,-0.67004 -0.36228,-1.06358 -0.8181,-0.88867 -0.33392,0.12814 -0.31997,0.60463 0.10218,3.4889 0.27697,1.8923 0.31769,1.988 0.8063,1.8946 0.33589,-0.0642 0.48487,0.0479 0.72065,0.54233 0.30662,0.643 0.3949,1.34957 0.16861,1.34957 -0.0707,0 -0.43184,-0.21014 -0.80247,-0.46699 -0.79511,-0.55102 -1.28669,-0.45295 -1.28259,0.25587 0.003,0.6223 0.17982,0.88956 0.64365,0.97627 0.26282,0.0491 0.38607,0.24116 0.42712,0.66544 0.0669,0.69189 0.61596,1.15531 1.3687,1.15531 0.64658,0 0.64178,-0.0817 -0.0512,-0.8709 -0.74676,-0.85051 -0.66304,-1.25323 0.26053,-1.25323 0.68461,0 0.7169,0.0295 1.01336,0.92353 0.27335,0.82442 0.36436,0.92451 0.84796,0.93259 0.29796,0.005 0.57816,0.11829 0.62266,0.25179 0.16061,0.48183 0.37067,-0.20041 0.22166,-0.71995 z m 3.32397,-0.0597 c 0,-0.13297 -0.12204,-0.4031 -0.27119,-0.6003 -0.26111,-0.34521 -0.27141,-0.3408 -0.27707,0.11862 -0.003,0.26244 0.0496,0.53257 0.11727,0.6003 0.20259,0.20258 0.43099,0.13972 0.43099,-0.11862 z m -16.43895,-0.49059 c 0,-0.1996 -0.16624,-0.45189 -0.36942,-0.56062 -0.39515,-0.21149 -0.49073,0.023 -0.25729,0.63136 0.15939,0.41537 0.62671,0.36262 0.62671,-0.0707 z m 1.10824,-0.27266 c 0,-0.0448 -0.0831,-0.13282 -0.1847,-0.19561 -0.10159,-0.0628 -0.18472,-0.0261 -0.18472,0.0815 0,0.10759 0.0831,0.19561 0.18472,0.19561 0.10158,0 0.1847,-0.0367 0.1847,-0.0814 z m -2.9432,-1.3357 c 0.21073,-0.55428 0.11234,-0.98405 -0.22529,-0.98405 -0.12363,0 -0.41683,-0.18041 -0.65155,-0.40092 -0.76707,-0.72062 -0.80777,0.0755 -0.0654,1.27829 0.45028,0.72949 0.69487,0.75718 0.9422,0.10668 z m 9.03854,-1.39742 c 0,-0.50019 -0.40096,-1.6184 -0.58033,-1.6184 -0.0752,0 -0.18807,0.0831 -0.25085,0.1847 -0.21411,0.34645 -0.45396,0.18532 -0.83451,-0.56064 -0.38514,-0.75492 -0.7355,-0.83024 -0.7355,-0.15811 0,0.52768 0.51931,1.45758 0.814,1.45758 0.13772,0 0.47347,0.29247 0.74613,0.64994 0.5215,0.68372 0.84106,0.70079 0.84106,0.045 z m 14.37023,-0.3624 c 0.32312,-0.32311 0.27177,-0.51717 -0.13687,-0.51717 -0.40592,0 -0.64321,0.27818 -0.47267,0.55412 0.15115,0.24456 0.33945,0.23314 0.60954,-0.0369 z m -25.97292,-0.7419 c -0.13254,-0.13254 -0.21857,-0.14344 -0.21857,-0.0277 0,0.24655 0.21844,0.46498 0.34171,0.34171 0.0525,-0.0525 -0.003,-0.19378 -0.12314,-0.314 z m -2.80716,-1.73345 c -0.65116,-2.44444 -1.31083,-2.65016 -0.97273,-0.30335 0.17259,1.19807 0.2874,1.49315 0.72868,1.87282 0.6979,0.60048 0.74367,0.30613 0.24405,-1.56947 z m 1.3955,0.89611 c -0.18971,-0.77163 -0.65554,-1.41146 -0.87085,-1.19614 -0.12017,0.12017 -0.0499,0.44228 0.20565,0.94328 0.44645,0.87511 0.85652,1.03099 0.6652,0.25286 z m 56.05114,-0.96971 c -0.19837,-0.37067 -0.92354,-0.52291 -0.92354,-0.19389 0,0.20654 0.54378,0.54964 0.88386,0.55769 0.1803,0.004 0.18984,-0.0832 0.0396,-0.3638 z m -60.7155,-0.41499 c -0.3538,-0.60577 -0.97672,-0.91689 -0.97672,-0.48782 0,0.32385 0.74791,1.08752 1.06509,1.08752 0.20787,0 0.18965,-0.12366 -0.0884,-0.5997 z m 64.59435,0.41499 c 0,-0.10159 -0.088,-0.18471 -0.1956,-0.18471 -0.10759,0 -0.14424,0.0831 -0.0815,0.18471 0.0628,0.10159 0.15081,0.18471 0.19561,0.18471 0.0448,0 0.0815,-0.0831 0.0815,-0.18471 z m -63.06315,-1.15442 c -0.0711,-0.63494 -0.12865,-1.30957 -0.12786,-1.49921 0.001,-0.3978 -0.49738,-1.22522 -0.73894,-1.22522 -0.37101,0 -7e-4,3.10658 0.43485,3.64797 0.41837,0.52002 0.55977,0.21772 0.43195,-0.92354 z m 56.22899,0.96514 c 0,-0.1041 -0.2053,-0.26734 -0.45621,-0.36273 -0.25092,-0.0954 -0.7593,-0.50894 -1.12974,-0.91897 -0.63343,-0.70113 -1.18466,-0.96574 -1.18466,-0.56868 0,0.0973 0.29649,0.40896 0.65887,0.69266 0.36238,0.28369 0.86538,0.70283 1.11776,0.9314 0.47921,0.434 0.99398,0.55121 0.99398,0.22632 z m -43.95193,-1.70261 c -0.11659,-0.38914 -0.20378,-1.18241 -0.19375,-1.76283 0.0214,-1.23964 -0.17026,-2.59499 -0.38583,-2.72822 -0.0836,-0.0517 -0.29274,0.17843 -0.46486,0.51127 -0.30742,0.59448 -0.31621,0.59785 -0.49786,0.19075 -0.39881,-0.89377 -0.80256,-0.16173 -0.47221,0.85617 0.63972,1.97126 0.96177,2.73269 1.28194,3.03097 0.19512,0.18178 0.35475,0.47689 0.35475,0.65579 0,0.1789 0.1039,0.43023 0.23089,0.55851 0.3338,0.33718 0.41741,-0.40962 0.14693,-1.31241 z m -1.14953,-2.26403 c -0.11906,-0.55347 -0.0615,-0.80243 0.13914,-0.60179 0.0584,0.0584 0.0779,0.34243 0.0431,0.63109 l -0.0631,0.52483 z m 40.48377,3.6018 c 0,-0.1016 -0.088,-0.18471 -0.19561,-0.18471 -0.10758,0 -0.14423,0.0831 -0.0814,0.18471 0.0628,0.10159 0.1508,0.1847 0.1956,0.1847 0.0448,0 0.0814,-0.0831 0.0814,-0.1847 z m 2.21649,-0.006 c 0,-0.27233 -0.49769,-0.42617 -0.87736,-0.2712 -0.29673,0.12113 -0.29294,0.1444 0.0461,0.28384 0.52117,0.21431 0.83118,0.20959 0.83118,-0.0126 z m 6.17112,-0.22508 c -0.30607,-0.54054 -0.90329,-1.06207 -1.21622,-1.06207 -0.4914,0 -0.41435,0.27168 0.23108,0.81477 0.59375,0.4996 1.21652,0.65594 0.98514,0.2473 z m -45.41487,-0.34384 c 0.078,-0.24584 0.0184,-0.49546 -0.16151,-0.6753 -0.25725,-0.25725 -0.29713,-0.2381 -0.40579,0.19481 -0.20097,0.80074 0.32441,1.24575 0.5673,0.48049 z m 49.13318,-0.15182 c -0.0669,-0.10835 -0.2623,-0.19435 -0.43408,-0.19112 -0.27423,0.005 -0.26891,0.0387 0.0436,0.27515 0.37958,0.28718 0.5917,0.24153 0.39049,-0.084 z m -47.93913,-0.0123 c 0,-0.10159 -0.088,-0.1847 -0.1956,-0.1847 -0.10758,0 -0.14424,0.0831 -0.0815,0.1847 0.0628,0.10159 0.15081,0.18471 0.19561,0.18471 0.0448,0 0.0814,-0.0831 0.0814,-0.18471 z M 168.077,156.19056 c 0,-0.46243 -0.41757,-1.20929 -0.67612,-1.20929 -0.2926,0 -0.31603,0.34961 -0.0673,1.00387 0.19156,0.50385 0.7434,0.65634 0.7434,0.20542 z m 79.74351,0.15678 c -0.0614,-0.0614 -0.22069,-0.0679 -0.35403,-0.0146 -0.14734,0.059 -0.10357,0.10273 0.1116,0.11159 0.19471,0.008 0.3038,-0.0357 0.24243,-0.097 z m -53.15216,-0.43039 c 0.27567,-0.51511 0.25673,-0.89039 -0.0304,-0.60321 -0.12191,0.12191 -0.45439,0.22165 -0.73883,0.22165 -0.55577,0 -0.64921,0.16351 -0.29553,0.51719 0.33282,0.33281 0.8493,0.26702 1.0648,-0.13563 z m 33.62322,0.28002 c 0,-0.33386 -0.28429,-0.66158 -0.57389,-0.66158 -0.40048,0 -0.44903,0.19616 -0.128,0.51719 0.20959,0.20959 0.70189,0.31087 0.70189,0.14439 z m -43.52333,-0.38657 c 0.1122,-0.29242 1.35495,-0.29025 2.65684,0.005 0.83233,0.18852 0.76302,-0.10178 -0.21579,-0.90384 -0.91627,-0.75082 -1.40039,-0.8543 -1.40039,-0.29932 0,0.43189 -0.28051,0.45994 -0.92354,0.0924 -0.64474,-0.36857 -0.78527,-0.33956 -0.54351,0.11217 0.2787,0.52075 -0.0174,0.82722 -0.53276,0.55141 -0.49541,-0.26513 -0.5861,-0.25491 -0.5861,0.066 0,0.57491 1.3435,0.90228 1.54525,0.37655 z m 5.10421,0.0601 c 0,-0.28666 -0.7433,-1.07397 -1.01393,-1.07397 -0.11588,0 -0.85883,-0.66406 -1.65099,-1.47569 -0.79216,-0.81163 -1.51426,-1.42997 -1.60467,-1.37409 -0.25107,0.15516 0.11084,0.70055 0.89163,1.34366 1.60987,1.32601 2.08502,1.77792 2.08502,1.98307 0,0.24784 0.7165,0.79181 1.06206,0.80631 0.12698,0.006 0.23088,-0.0889 0.23088,-0.20929 z m 2.4012,-0.0456 c 0,-0.14555 -0.17179,-0.31914 -0.38176,-0.38579 -0.20998,-0.0667 -0.83156,-0.57096 -1.3813,-1.12069 -0.91558,-0.91558 -1.37696,-1.20658 -1.37696,-0.86847 0,0.13527 1.66392,1.71602 1.80631,1.71602 0.044,0 0.2434,0.2078 0.44317,0.46177 0.39799,0.50597 0.89054,0.61501 0.89054,0.19716 z m 20.50251,-0.1048 c -0.1913,-0.35744 -0.73884,-0.5217 -0.73884,-0.22165 0,0.23258 0.41843,0.59106 0.68992,0.59106 0.18938,0 0.20073,-0.0857 0.0489,-0.36941 z m 2.40119,0.1956 c 0,-0.21793 -0.36024,-0.45106 -0.49256,-0.31874 -0.1323,0.1323 0.10082,0.49255 0.31875,0.49255 0.0956,0 0.17381,-0.0782 0.17381,-0.17381 z m 17.13218,-0.0571 c -0.10882,-0.32894 -1.01294,-0.80402 -1.19071,-0.62565 -0.17847,0.17908 0.60857,0.85654 0.9951,0.85654 0.14959,0 0.23762,-0.1039 0.19561,-0.23089 z m -62.52441,-1.20086 c -0.57444,-0.93357 -0.93477,-2.07761 -0.65438,-2.07761 0.0878,0 0.29492,0.22857 0.46037,0.50794 0.33789,0.57056 1.21484,1.44354 1.33051,1.32447 0.0415,-0.0427 -0.20753,-0.65896 -0.5534,-1.36939 -0.73475,-1.50921 -0.77238,-1.75892 -0.2443,-1.62082 0.36219,0.0947 0.37746,0.048 0.26255,-0.8023 -0.21434,-1.58609 -0.62156,-2.75642 -1.60865,-4.62314 -2.45171,-4.63651 -2.73888,-5.2925 -2.61561,-5.975 0.14178,-0.78504 0.56694,-1.66422 0.80479,-1.66422 0.38716,0 0.58011,0.73794 0.35542,1.3593 -0.18131,0.5014 -0.16501,0.77375 0.0927,1.54971 0.27927,0.84084 0.74874,1.51552 0.91808,1.3194 0.0344,-0.0399 0.18402,-0.44653 0.33242,-0.90368 0.17862,-0.55025 0.4298,-0.90923 0.74315,-1.06209 0.60014,-0.29278 0.78889,-1.35758 0.53577,-3.02254 -0.18505,-1.21726 -0.16187,-2.66974 0.0459,-2.87754 0.0651,-0.0651 0.11828,0.4774 0.11828,1.20546 0,1.00122 0.062,1.32373 0.25445,1.32373 0.48168,0 0.61905,-0.46758 0.75968,-2.58589 0.0776,-1.16828 0.16701,-2.48021 0.19877,-2.91541 0.0378,-0.51791 0.22115,-0.98545 0.53073,-1.35336 0.52524,-0.62421 0.54909,-0.70722 0.84304,-2.93482 0.53748,-4.07291 0.99898,-5.64819 1.37083,-4.67914 0.17775,0.46319 0.36208,0.15469 1.1039,-1.8475 1.07905,-2.91239 2.30729,-5.10725 3.41957,-6.11074 1.941,-1.75115 2.77874,-2.57762 2.69629,-2.66006 -0.17277,-0.17278 -1.47491,0.60898 -2.78608,1.67269 -1.43618,1.16512 -2.28873,2.23275 -2.77946,3.48064 -0.17657,0.44902 -0.42101,0.98263 -0.54321,1.18581 -0.12219,0.20318 -0.2752,0.59799 -0.34001,0.87736 -0.12754,0.54974 -0.60851,0.68519 -0.78645,0.22148 -0.0631,-0.16436 0.0674,-0.47525 0.30622,-0.72943 0.26188,-0.27876 0.37146,-0.55942 0.29561,-0.75709 -0.10788,-0.28114 -0.17334,-0.26757 -0.62319,0.12913 -0.27646,0.24379 -0.57025,0.54879 -0.65287,0.67777 -0.0826,0.12899 -0.70337,0.6056 -1.37945,1.05915 -1.33779,0.89746 -1.85954,0.87704 -1.29098,-0.0505 0.25034,-0.40842 0.42077,-0.49266 0.89626,-0.44304 0.48476,0.0506 0.73585,-0.0815 1.44,-0.75747 0.46907,-0.45031 1.16039,-1.04563 1.53627,-1.32293 0.37588,-0.2773 0.94818,-0.97542 1.27175,-1.55137 0.32359,-0.57595 0.82646,-1.32021 1.11748,-1.65391 0.62576,-0.7175 0.66486,-0.96329 0.15323,-0.96329 -0.30828,0 -0.34307,-0.0614 -0.19335,-0.34111 0.39621,-0.74033 -0.92181,-1.08702 -1.51201,-0.39771 -0.37278,0.43537 -0.65104,0.45647 -1.14022,0.0865 -0.19721,-0.14916 -0.53987,-0.27119 -0.76149,-0.27119 -0.51218,0 -1.75379,1.33156 -2.36345,2.53466 -0.2524,0.4981 -0.59008,1.01448 -0.75038,1.14752 -0.16031,0.13305 -0.29148,0.31397 -0.29148,0.40204 0,0.0881 -0.45715,0.97859 -1.01588,1.9789 -0.55874,1.00033 -1.01589,1.9045 -1.01589,2.00929 0,0.10479 -0.33049,0.76257 -0.73443,1.46174 -0.6153,1.06504 -0.75308,1.49591 -0.84941,2.65652 -0.0972,1.1707 -0.40169,2.36392 -0.94275,3.69415 -0.062,0.15238 -0.13152,0.73421 -0.15454,1.29295 -0.0424,1.03053 -0.66256,3.37249 -1.02704,3.87885 -0.27934,0.38806 -0.0649,-1.36159 0.38477,-3.14002 0.19266,-0.76192 0.40177,-1.96713 0.46467,-2.67825 0.0629,-0.71113 0.2279,-1.58387 0.36664,-1.93943 0.13874,-0.35556 0.34006,-1.18634 0.44738,-1.84619 0.10732,-0.65983 0.36193,-1.42531 0.5658,-1.70106 0.20386,-0.27574 0.37066,-0.54778 0.37066,-0.60452 0,-0.0568 0.33248,-0.65044 0.73883,-1.31931 0.40635,-0.66888 0.74034,-1.31154 0.74219,-1.42814 0.002,-0.1166 0.2512,-0.57777 0.55412,-1.02481 0.30292,-0.44704 0.55076,-0.88831 0.55076,-0.98062 0,-0.0923 0.0831,-0.11643 0.18471,-0.0537 0.10159,0.0628 0.18753,0.006 0.19098,-0.12763 0.003,-0.13298 0.16322,-0.57379 0.35505,-0.97957 0.47162,-0.99761 0.28642,-1.08179 -0.42343,-0.19245 -0.3214,0.40267 -0.77802,0.94294 -1.0147,1.20059 -0.42136,0.4587 -0.42846,0.4598 -0.34053,0.0529 0.0494,-0.22857 0.0674,-0.4156 0.0401,-0.4156 -0.0273,0 -0.36521,0.25077 -0.75088,0.55726 -0.46497,0.36952 -0.82025,0.51948 -1.05453,0.44513 -0.4079,-0.12947 -0.97365,0.3157 -1.36637,1.07514 -0.23138,0.44743 -0.22911,0.50838 0.0189,0.50838 0.15499,0 0.2818,-0.0718 0.2818,-0.15952 0,-0.21192 0.92811,-1.13343 1.14153,-1.13343 0.29876,0 0.0704,0.63731 -0.35064,0.97849 -0.22534,0.18261 -0.86797,1.01379 -1.42805,1.84707 -0.56008,0.83328 -1.25459,1.84753 -1.54334,2.25389 -1.65657,2.33129 -2.15353,3.43634 -2.37954,5.29127 -0.0908,0.74516 -0.0528,0.88602 0.28831,1.06857 0.43926,0.23508 0.51877,0.95036 0.1991,1.79115 -0.10659,0.28034 -0.31218,1.68756 -0.45688,3.12716 -0.1447,1.43961 -0.34422,2.83085 -0.44338,3.09165 -0.23537,0.61907 0.18846,2.1615 0.59395,2.1615 0.10958,0 0.3916,0.18072 0.62672,0.4016 l 0.42749,0.40162 v -0.40897 c 0,-0.22493 0.16752,-0.73733 0.37226,-1.13866 0.32001,-0.62726 0.34858,-0.87901 0.20354,-1.79354 -0.11011,-0.69429 -0.10393,-1.14323 0.0178,-1.29238 0.2638,-0.32317 0.0383,-0.78736 -0.38255,-0.78736 -0.38855,0 -0.51979,-0.48471 -0.57186,-2.11194 -0.0311,-0.9717 0.29683,-2.62911 0.5513,-2.78638 0.29546,-0.1826 0.32673,0.1957 0.0764,0.92394 -0.13892,0.40407 -0.20426,0.9272 -0.1452,1.16249 0.10209,0.40674 0.12455,0.41228 0.45575,0.11255 0.39491,-0.35739 0.59626,-0.27202 0.42305,0.17936 -0.0641,0.16692 -0.27381,0.3035 -0.46611,0.3035 -0.23244,0 -0.34966,0.13046 -0.34966,0.38918 0,0.27004 0.0848,0.35662 0.27706,0.28285 0.15238,-0.0585 0.28292,-0.0882 0.29008,-0.066 0.007,0.0222 0.0528,0.45598 0.1014,0.96392 0.0611,0.63826 0.20962,1.02629 0.48086,1.2562 0.34997,0.29665 0.38528,0.48665 0.32608,1.75472 -0.21698,4.64794 0.34953,9.37345 1.42749,11.90734 0.1628,0.38269 0.56481,0.86193 0.89334,1.06498 0.63124,0.39013 1.19079,1.34405 1.19079,2.03007 0,0.36128 -0.0369,0.38001 -0.30821,0.15679 -0.27927,-0.22969 -0.29731,-0.19839 -0.19205,0.33321 0.16034,0.80976 0.86936,2.27626 1.10053,2.27626 0.10461,0 0.30221,-0.14546 0.43913,-0.32324 0.2329,-0.30242 0.2726,-0.2935 0.61655,0.13853 0.20218,0.25397 0.36946,0.5906 0.37172,0.74806 0.006,0.40602 0.40827,0.76873 0.61905,0.55795 0.10572,-0.10572 -0.042,-0.51877 -0.38448,-1.07547 z m -1.34643,-5.23207 c -0.11299,-0.21112 -0.15146,-0.52281 -0.0855,-0.69265 0.10184,-0.26221 0.15874,-0.23913 0.3771,0.15296 0.14143,0.25397 0.2601,0.56567 0.2637,0.69266 0.0103,0.36327 -0.32904,0.26979 -0.5553,-0.15297 z m -0.25563,-1.77117 c -0.17972,-0.46834 0.19281,-0.72312 0.42445,-0.29029 0.18674,0.34893 0.11502,0.59824 -0.17212,0.59824 -0.0738,0 -0.18734,-0.13858 -0.25233,-0.30795 z m 0.15447,-8.47671 c -0.39755,-0.95149 -0.38144,-2.59685 0.0299,-3.05136 0.48787,-0.53909 0.68514,-0.17069 0.43677,0.81568 -0.17985,0.71424 -0.16616,0.97892 0.0828,1.60114 0.37418,0.93516 0.37743,1.29208 0.0118,1.29208 -0.15757,0 -0.41012,-0.29589 -0.56123,-0.65754 z m -7.26482,-1.8514 c 0.009,-0.21518 0.0526,-0.25894 0.11159,-0.1116 0.0533,0.13334 0.0468,0.29265 -0.0146,0.35403 -0.0614,0.0614 -0.10503,-0.0477 -0.097,-0.24243 z m 1.09366,-0.72344 c 0,-0.49101 0.0584,-0.8344 0.12966,-0.76309 0.13626,0.13626 0.0987,1.42749 -0.0457,1.57192 -0.0462,0.0461 -0.0839,-0.31782 -0.0839,-0.80883 z m 3.36758,0.27706 c 0,-0.35556 0.038,-0.50102 0.0845,-0.32323 0.0465,0.17778 0.0465,0.46869 0,0.64647 -0.0465,0.17778 -0.0845,0.0323 -0.0845,-0.32324 z m 0.32656,-2.26774 c 0,-0.36486 0.55856,-1.07605 0.75147,-0.95682 0.0946,0.0585 0.17207,0.35079 0.17207,0.64957 0,0.45629 -0.0739,0.54321 -0.46177,0.54321 -0.25398,0 -0.46177,-0.10618 -0.46177,-0.23596 z m 4.07079,-3.2164 c -0.004,-0.32417 0.0762,-0.64095 0.17816,-0.70397 0.10196,-0.063 0.14479,-0.2965 0.0952,-0.51884 -0.0496,-0.22236 -0.0169,-0.69519 0.0728,-1.05075 0.14914,-0.59164 0.16456,-0.55037 0.18187,0.48673 0.0105,0.62955 -0.10103,1.40946 -0.25093,1.75473 l -0.26983,0.6215 z m -5.90286,-2.55986 c -0.008,-0.30985 0.06,-0.64232 0.15178,-0.73883 0.0917,-0.0965 0.20676,-0.34171 0.25563,-0.54488 0.0605,-0.25141 0.093,-0.19241 0.10196,0.1847 0.007,0.30477 -0.10109,0.80348 -0.24064,1.10825 l -0.25373,0.55412 z m -1.10866,-0.56028 c 0.009,-0.21517 0.0526,-0.25893 0.11159,-0.11159 0.0533,0.13334 0.0468,0.29264 -0.0146,0.35402 -0.0614,0.0614 -0.10504,-0.0478 -0.097,-0.24243 z m 7.573,-0.1847 c 0.009,-0.21518 0.0526,-0.25895 0.11159,-0.1116 0.0533,0.13333 0.0468,0.29265 -0.0146,0.35403 -0.0614,0.0614 -0.10503,-0.0477 -0.097,-0.24243 z m -8.40263,-1.50844 c 0.12843,-0.71037 0.211,-0.90467 0.32707,-0.76962 0.13585,0.15808 -0.11337,1.46226 -0.27943,1.46226 -0.0989,0 -0.11928,-0.29644 -0.0476,-0.69264 z m 8.60191,-0.0461 c 0,-0.25397 0.042,-0.35787 0.0932,-0.23088 0.0512,0.12698 0.0512,0.33478 0,0.46177 -0.0512,0.12698 -0.0932,0.0231 -0.0932,-0.23089 z m -7.3372,-0.92918 c 0.15603,-2.1324 0.42448,-2.88824 0.86822,-2.44449 0.11287,0.11286 0.11342,0.33895 10e-4,0.62114 -0.0968,0.24403 -0.28037,0.9424 -0.40799,1.55194 -0.326,1.55686 -0.56614,1.69801 -0.46175,0.27141 z m 7.34498,-0.40071 c -0.30131,-0.30131 -0.27842,-0.72334 0.0659,-1.21491 0.46546,-0.66454 0.69878,-0.5079 0.5578,0.37449 -0.14669,0.9182 -0.31675,1.14736 -0.62368,0.84042 z m 3.31695,-3.4725 c 0,-0.25397 0.0419,-0.35787 0.0932,-0.23088 0.0512,0.12699 0.0512,0.33478 0,0.46177 -0.0512,0.12698 -0.0932,0.0231 -0.0932,-0.23089 z m -8.78206,-0.23299 c 0.36607,-0.63334 0.86047,-1.25625 0.93662,-1.18011 0.14825,0.14826 -0.46783,1.17824 -0.77537,1.29625 -0.19944,0.0765 -0.25111,0.0393 -0.16125,-0.11614 z m 1.17991,-1.6984 c 0,-0.50769 1.7181,-2.87682 1.93152,-2.6634 0.1189,0.11889 -1.46165,2.62188 -1.70733,2.70377 -0.12331,0.0411 -0.22419,0.023 -0.22419,-0.0404 z m 4.98709,-1.72819 c 0,-0.18418 0.25923,-0.57898 0.57606,-0.87736 0.57501,-0.54152 0.5758,-0.54167 0.43503,-0.0807 -0.1623,0.53144 -0.66881,1.27861 -0.87256,1.28715 -0.0762,0.003 -0.13853,-0.14488 -0.13853,-0.32905 z m 2.03823,-1.17557 c -0.003,-0.17041 0.18057,-0.46133 0.40914,-0.64648 0.22858,-0.18516 0.52957,-0.5578 0.66887,-0.8281 0.34228,-0.66419 1.7856,-2.0613 2.04138,-1.97604 0.11309,0.0377 -0.19071,0.48363 -0.67511,0.99096 -0.48439,0.50733 -1.23107,1.338 -1.65928,1.84595 -0.49557,0.58786 -0.7809,0.81092 -0.785,0.61371 z m -0.74528,-0.86421 c 0,-0.248 1.28941,-1.87363 1.48612,-1.87363 0.23577,0 0.22491,0.31753 -0.0159,0.46639 -0.1057,0.0653 -0.39766,0.44427 -0.64879,0.84208 -0.42148,0.66767 -0.82138,0.94282 -0.82138,0.56516 z m 85.39195,39.73164 c 0.0434,-0.0762 0.13687,-0.45895 0.20761,-0.85058 0.0985,-0.5451 0.0721,-0.6932 -0.11257,-0.63165 -0.3351,0.1117 -0.94477,1.19972 -0.80185,1.43097 0.13629,0.22052 0.59146,0.25353 0.70681,0.0512 z m -78.83437,-1.10825 c 0.48873,-1.06077 0.48898,-1.06364 0.19968,-2.35502 -0.15932,-0.71111 -0.27113,-1.87477 -0.24847,-2.58589 0.0629,-1.97445 -0.24203,-7.18082 -0.43227,-7.38038 -0.38501,-0.40388 -0.77094,0.43961 -0.98189,2.14602 -0.15372,1.24349 -0.28813,1.73692 -0.48346,1.77472 -0.14881,0.0288 -0.43077,0.32028 -0.6266,0.64775 l -0.35605,0.5954 -0.10572,-0.50465 c -0.14891,-0.71083 -0.72661,-1.34953 -0.98602,-1.09013 -0.26859,0.2686 -0.29159,3.63356 -0.0267,3.90035 0.11071,0.11147 0.44318,0.22015 0.73883,0.24151 0.47869,0.0345 0.53831,-0.0204 0.54465,-0.50228 0.004,-0.30859 0.12311,-0.5769 0.27706,-0.6244 0.14847,-0.0458 0.40849,-0.20375 0.57782,-0.35098 0.23862,-0.20747 0.39442,-0.22136 0.69265,-0.0618 0.37866,0.20266 0.5467,0.93176 0.21475,0.93176 -0.32889,0 -0.39997,1.07625 -0.20262,3.06773 0.24827,2.50542 0.37247,3.21232 0.56437,3.21232 0.0828,0 0.37081,-0.47793 0.63994,-1.06207 z m -3.75157,-5.78595 c 0.0364,-0.10921 0.14515,-0.19856 0.24166,-0.19856 0.0965,0 0.20525,0.0893 0.24166,0.19856 0.0364,0.10921 -0.0724,0.19856 -0.24166,0.19856 -0.16932,0 -0.27806,-0.0893 -0.24166,-0.19856 z m 2.1259,-1.21114 c -0.23996,-0.23996 -0.14052,-1.1762 0.12493,-1.1762 0.3609,0 0.71104,0.47692 0.63604,0.86636 -0.0661,0.34344 -0.53604,0.53477 -0.76097,0.30984 z m 30.00631,7.48647 c -0.33986,-0.30902 -0.67234,-0.50693 -0.73883,-0.4398 -0.13575,0.13706 0.88481,1.01315 1.17205,1.00616 0.10159,-0.003 -0.0934,-0.25733 -0.43322,-0.56636 z m 21.34747,0.27639 c -0.0614,-0.0614 -0.22069,-0.0679 -0.35403,-0.0146 -0.14734,0.059 -0.10357,0.10273 0.1116,0.11159 0.19471,0.008 0.3038,-0.0356 0.24243,-0.097 z m 5.03712,0.0258 c 0,-0.0472 -0.18702,-0.18551 -0.41559,-0.3073 -0.37684,-0.2008 -0.39196,-0.1928 -0.16209,0.0858 0.23602,0.28612 0.57768,0.41709 0.57768,0.22145 z m -67.41815,-0.3547 c 0,-0.14072 -0.13408,-0.70177 -0.29795,-1.24678 -0.16388,-0.545 -0.33113,-1.10425 -0.37167,-1.24276 -0.0439,-0.15011 -0.22232,-0.21297 -0.44164,-0.15562 -0.2715,0.071 -0.38695,-0.008 -0.44048,-0.30229 -0.32891,-1.80697 -0.78948,-3.48124 -0.9418,-3.42365 -0.10159,0.0384 -0.17811,0.58933 -0.17004,1.22426 0.0156,1.23272 -0.18425,1.54537 -0.35431,0.55412 -0.14492,-0.84469 -0.63902,-2.83554 -0.67617,-2.72443 -0.30318,0.90696 -0.23792,3.3085 0.1041,3.83048 l 0.31198,0.47614 0.31722,-0.42055 0.31722,-0.42055 0.19786,0.89932 c 0.2241,1.0186 0.6452,2.20808 0.85654,2.41941 0.0779,0.0779 0.25957,-0.0196 0.40364,-0.21656 0.14409,-0.19704 0.26196,-0.26466 0.26196,-0.15027 0,0.1144 0.0811,0.4212 0.18014,0.68179 0.18876,0.49648 0.7434,0.65908 0.7434,0.21794 z m 90.27696,-0.40475 c -0.18178,-0.18179 -0.50924,0.0973 -0.50924,0.43399 0,0.28196 0.0243,0.28145 0.31225,-0.006 0.17174,-0.17173 0.26038,-0.3641 0.19699,-0.42749 z m -51.67314,0.39442 c 0,-0.0448 -0.0831,-0.13282 -0.18471,-0.19561 -0.10159,-0.0628 -0.18471,-0.0261 -0.18471,0.0814 0,0.10759 0.0831,0.19561 0.18471,0.19561 0.10159,0 0.18471,-0.0366 0.18471,-0.0814 z m 55.41861,-0.22094 c 0.24501,-0.24452 0.0844,-0.37585 -0.56056,-0.45834 -0.52637,-0.0673 -0.92356,0.12554 -0.92348,0.44839 7e-5,0.28274 1.20262,0.2908 1.48404,0.01 z m -60.86748,-0.62115 c -0.1576,-0.30476 -0.31917,-0.55412 -0.35905,-0.55412 -0.0399,0 -0.20398,-0.0505 -0.36467,-0.11211 -0.42561,-0.16333 -0.36305,0.28991 0.10945,0.79286 0.6087,0.64794 0.9757,0.57229 0.61427,-0.12663 z m 2.12784,0.0968 c -0.1285,-0.15484 -0.31946,-0.28152 -0.42436,-0.28152 -0.1049,0 -0.0398,0.16674 0.14462,0.37054 0.38199,0.4221 0.63667,0.34105 0.27974,-0.089 z m -7.76141,0.0984 c 0,-0.21148 -0.77361,-0.77608 -0.89586,-0.65383 -0.11034,0.11033 0.53087,0.82807 0.73978,0.82807 0.0858,0 0.15608,-0.0784 0.15608,-0.17424 z m -21.98016,-0.19518 c 0,-0.10158 -0.088,-0.1847 -0.19561,-0.1847 -0.10759,0 -0.14424,0.0831 -0.0815,0.1847 0.0628,0.10159 0.15081,0.18471 0.19561,0.18471 0.0448,0 0.0814,-0.0831 0.0814,-0.18471 z m 31.65173,-0.0923 c -0.0585,-0.15238 -0.24288,-0.27442 -0.40979,-0.27118 -0.25759,0.005 -0.24926,0.0468 0.0551,0.27705 0.44814,0.33895 0.48681,0.33832 0.35473,-0.006 z m -27.25148,-2.14682 c -0.0387,-0.40484 -0.15688,-0.62379 -0.33669,-0.62379 -0.35384,0 -0.45639,0.69296 -0.17919,1.2109 0.29235,0.54627 0.59166,0.20564 0.51588,-0.58711 z m 7.79043,0.3921 c -0.41964,-0.58932 -0.73883,-0.71875 -0.73883,-0.29959 0,0.24574 0.67323,0.82421 0.98229,0.84403 0.0831,0.006 -0.0265,-0.23967 -0.24346,-0.54444 z m 33.80221,0.41559 c 3.7e-4,-0.0762 -0.49828,-0.60105 -1.10825,-1.16636 -1.0506,-0.97368 -1.40494,-1.65043 -0.86416,-1.65043 0.13468,0 0.44637,0.2168 0.69266,0.48177 0.64325,0.69207 2.71932,2.14736 2.95247,2.06964 0.10858,-0.0362 -0.30959,-0.54515 -0.92925,-1.13102 -0.61967,-0.58588 -1.07727,-1.14514 -1.01691,-1.2428 0.17633,-0.28531 0.36878,-0.21257 1.03263,0.3903 0.68757,0.62441 1.64929,1.27742 1.8829,1.2785 0.0821,3.7e-4 -0.21683,-0.47724 -0.66433,-1.06138 -1.0998,-1.43555 -1.32481,-1.88204 -1.07456,-2.13228 0.24656,-0.24657 1.00101,0.41118 1.30146,1.13464 0.11185,0.26934 0.48796,0.68427 0.83579,0.92208 0.34784,0.23782 0.76363,0.63262 0.92399,0.87736 0.17817,0.27192 0.46949,0.44498 0.74907,0.44498 0.57954,0 0.57648,-0.13032 -0.014,-0.59478 -0.54255,-0.42676 -1.92971,-2.25074 -1.92971,-2.53736 0,-0.36451 0.32654,-0.19132 0.79344,0.4208 0.53357,0.69956 2.21978,2.34863 2.64462,2.58638 0.66603,0.37273 0.41004,-0.12897 -0.66279,-1.299 -2.11602,-2.30771 -2.16365,-3.302 -0.0581,-1.21247 1.69098,1.67811 2.63933,2.38867 2.63933,1.97755 0,-0.0576 -0.27014,-0.37518 -0.6003,-0.70569 -1.39921,-1.40069 -2.31846,-2.86397 -2.06094,-3.28065 0.15503,-0.25084 0.72951,0.30078 1.00441,0.96442 0.27996,0.67591 1.01684,0.78856 0.81886,0.12518 -0.0682,-0.22857 -0.24006,-0.59968 -0.38186,-0.82468 -0.14181,-0.225 -0.25783,-0.58435 -0.25783,-0.79855 0,-0.66724 0.58,-0.33985 1.15784,0.65356 0.64712,1.11251 1.43944,1.97475 2.47723,2.69585 1.24486,0.86498 1.29506,0.61904 0.10726,-0.52558 -1.42315,-1.37142 -2.25349,-2.943 -1.72689,-3.26846 0.0926,-0.0572 0.43331,0.33268 0.75711,0.86646 0.58527,0.96478 2.16049,2.72523 2.43849,2.72523 0.27828,0 0.14209,-0.40011 -0.40865,-1.20059 -0.56052,-0.81468 -0.68688,-1.2006 -0.39311,-1.2006 0.0886,0 0.72576,0.54027 1.41599,1.2006 1.34559,1.28729 2.33298,1.72427 1.14775,0.50794 -0.60769,-0.62364 -1.2471,-1.77535 -1.2471,-2.24632 0,-0.0991 0.62601,0.4337 1.39113,1.18406 1.27737,1.25275 2.00499,1.7451 2.23663,1.51346 0.0498,-0.0498 -0.41365,-0.67622 -1.02981,-1.39212 -1.05315,-1.22364 -1.32128,-1.69116 -0.96991,-1.69116 0.0827,0 0.43063,0.37404 0.77316,0.83119 0.34253,0.45715 0.68755,0.83118 0.76673,0.83118 0.0792,0 0.42579,0.24746 0.77027,0.54992 0.76424,0.67101 1.0254,0.52618 0.39727,-0.22031 -0.25114,-0.29846 -0.45661,-0.6194 -0.45661,-0.7132 0,-0.34666 0.61617,-0.15432 1.22881,0.38359 0.61838,0.54294 0.98767,0.69644 0.98767,0.41051 0,-0.16795 -0.56004,-1.01176 -0.76713,-1.15581 -0.25062,-0.17434 -0.72218,-1.47119 -0.53495,-1.47119 0.0993,0 0.3797,0.29311 0.62313,0.65136 0.38444,0.56576 3.26721,2.67337 3.6566,2.67337 0.36035,0 0.28857,-0.3383 -0.11793,-0.55585 -0.44188,-0.23649 -0.77754,-0.84906 -0.57579,-1.05082 0.0556,-0.0556 0.49308,0.15842 0.97207,0.47569 0.47899,0.31728 0.98132,0.57686 1.11629,0.57686 0.44366,0 0.25621,-0.53903 -0.28471,-0.81876 -1.02424,-0.52966 -3.07416,-3.21154 -2.72311,-3.56259 0.072,-0.072 0.47666,0.28176 0.89926,0.7861 1.19482,1.42594 2.50703,2.58607 3.21434,2.84183 0.71482,0.25849 1.09617,0.0903 0.53955,-0.23795 -0.86464,-0.50989 -1.76179,-1.49063 -2.34211,-2.56035 -0.81157,-1.49598 -0.79088,-1.43773 -0.5047,-1.42083 0.13545,0.008 0.74498,0.64829 1.35452,1.42288 1.05779,1.34422 2.08091,2.17877 2.49986,2.03912 0.10699,-0.0357 0.0174,-0.25494 -0.19905,-0.48729 -0.23291,-0.25 -0.34675,-0.54447 -0.27888,-0.72135 0.0941,-0.24525 0.23929,-0.17724 0.80889,0.37897 0.62761,0.61284 1.32067,0.89433 1.32792,0.53933 0.009,-0.4374 0.33223,-0.63169 0.71251,-0.42816 0.54254,0.29035 0.49168,0.0815 -0.16122,-0.66213 -0.30476,-0.34711 -0.55412,-0.75289 -0.55412,-0.90174 0,-0.36034 0.7206,-0.34836 0.85976,0.0143 0.12008,0.31291 1.54144,1.10864 1.54144,0.86295 0,-0.0839 -0.208,-0.4345 -0.46222,-0.77907 -0.32709,-0.44336 -0.40445,-0.68333 -0.26463,-0.8209 0.13882,-0.13656 0.27505,-0.0895 0.45799,0.15837 0.60981,0.82609 1.21398,1.40196 1.47088,1.40196 0.55008,0 0.272,-0.4566 -1.27349,-2.09111 -0.70901,-0.74985 -0.8267,-1.04891 -0.41277,-1.04891 0.14004,0 0.60993,0.46056 1.04421,1.02347 0.7072,0.91667 1.6179,1.74713 1.91591,1.74713 0.31247,0 0.025,-0.53444 -0.66652,-1.23901 -0.58004,-0.59101 -0.72339,-0.84437 -0.56654,-1.00123 0.30969,-0.30969 0.74747,-0.0676 1.16855,0.646 0.20477,0.34708 0.53797,0.67436 0.74042,0.72731 0.35658,0.0932 0.35531,0.0751 -0.0406,-0.58047 -0.22479,-0.3722 -0.55962,-0.87495 -0.74405,-1.11723 -0.40759,-0.5354 -0.4585,-1.34988 -0.0752,-1.20279 0.14308,0.0549 0.36215,0.34606 0.4868,0.64702 0.22815,0.55082 1.73393,2.01216 2.07333,2.01216 0.10031,0 -0.0396,-0.27013 -0.31102,-0.60029 -0.27138,-0.33017 -0.667,-0.9695 -0.87917,-1.42073 -0.40251,-0.85604 -0.74963,-2.96607 -0.48794,-2.96607 0.0829,0 0.1508,0.15609 0.1508,0.34686 0,0.54603 0.54423,1.71052 1.16745,2.49797 l 0.57039,0.7207 0.13686,-0.51174 c 0.0918,-0.34305 0.0424,-0.67196 -0.14957,-0.99777 -0.22047,-0.37408 -0.22409,-0.41157 -0.0157,-0.16277 0.41173,0.49158 0.50706,0.39813 0.50706,-0.49705 0,-0.45115 0.074,-0.86603 0.16451,-0.92195 0.21617,-0.1336 0.75903,0.70412 0.75903,1.17131 0,0.20109 0.20286,0.59883 0.45079,0.88386 l 0.45078,0.51825 -0.19787,-0.79164 c -0.10884,-0.4354 -0.14746,-0.84206 -0.0858,-0.90368 0.1891,-0.1891 0.67385,0.33073 1.02722,1.10154 0.19598,0.42749 0.38906,0.64704 0.46333,0.52686 0.07,-0.11333 0.006,-0.47711 -0.14202,-0.80839 -0.43904,-0.98176 -0.51138,-1.55421 -0.22632,-1.79078 0.31715,-0.26322 0.40761,-0.12752 0.6571,0.98575 0.28715,1.28134 0.66789,1.77269 1.37363,1.77269 0.32356,0 0.68803,0.0997 0.80994,0.22165 0.15884,0.15884 0.27823,0.16507 0.42132,0.022 0.1431,-0.14309 0.0908,-0.41317 -0.1847,-0.95312 -0.39594,-0.77607 -0.52338,-2.06111 -0.20443,-2.06111 0.20511,0 0.6367,0.79201 0.80523,1.47766 0.0624,0.25397 0.32345,0.70326 0.58005,0.99844 0.5374,0.61818 0.59454,0.40896 0.24512,-0.8975 -0.23961,-0.89585 -0.17912,-1.09571 0.27848,-0.92011 0.17759,0.0681 0.34344,0.43859 0.41753,0.93259 0.0784,0.52316 0.26262,0.91741 0.50928,1.09017 0.63793,0.44682 0.75333,0.0406 0.35051,-1.23381 -0.23051,-0.72926 -0.30513,-1.23941 -0.19799,-1.35355 0.20141,-0.21455 0.47145,0.13376 0.64322,0.82964 0.16596,0.67235 1.04497,2.03107 1.31424,2.03145 0.28972,3.7e-4 0.28982,0.002 -0.0577,-0.82986 -0.1587,-0.37982 -0.24443,-0.80556 -0.1905,-0.94609 0.18922,-0.49309 0.48263,-0.24745 0.70715,0.59203 0.1254,0.46887 0.38323,0.93131 0.57709,1.03506 0.3313,0.17731 0.34324,0.13019 0.21902,-0.86403 -0.11673,-0.93435 -0.096,-1.04457 0.18567,-0.98888 0.17438,0.0345 0.47908,0.35359 0.67711,0.70915 l 0.36005,0.64648 -0.11385,-1.47766 c -0.10397,-1.34956 -0.0893,-1.44658 0.16944,-1.11912 0.1558,0.1972 0.28327,0.50721 0.28327,0.68891 0,0.46999 0.56243,1.81551 0.75889,1.81551 0.21899,0 0.20773,-0.62264 -0.035,-1.93567 -0.18726,-1.01298 -0.16858,-1.14138 0.30108,-2.06965 0.2754,-0.54431 0.56633,-1.03021 0.64653,-1.07977 0.28825,-0.17815 0.73206,0.48605 0.62084,0.92916 -0.06,0.23926 -0.0211,0.58651 0.0866,0.77165 0.15369,0.26426 0.19697,0.0961 0.20138,-0.7825 0.003,-0.64608 0.1123,-1.26502 0.25801,-1.46429 0.2444,-0.33424 0.26927,-0.33195 0.78501,0.0723 0.93003,0.72897 1.11053,1.78207 0.33866,1.97581 -0.66743,0.16751 -0.52434,0.71745 0.18706,0.7189 0.42675,7e-4 0.56605,-0.0975 0.65248,-0.46067 0.0708,-0.2976 0.23826,-0.46177 0.47098,-0.46177 0.30256,0 0.37605,0.16233 0.45344,1.00156 0.0581,0.62999 0.1884,1.03316 0.35124,1.08679 0.19352,0.0637 0.22848,-0.026 0.13844,-0.35507 -0.37831,-1.3828 -0.27224,-2.42493 0.21607,-2.12313 0.25937,0.1603 0.63043,2.0017 0.48155,2.38968 -0.0652,0.16996 -0.0316,0.30901 0.0746,0.30901 0.10623,0 0.24509,-0.3948 0.30856,-0.87736 0.0635,-0.48254 0.13091,-0.99515 0.14985,-1.13911 0.0522,-0.3971 0.45505,-0.45064 0.53947,-0.0717 0.0408,0.1834 0.13932,-0.10705 0.21882,-0.64545 0.1458,-0.98756 0.50994,-1.24129 0.62818,-0.4377 0.0325,0.22084 0.21446,0.48469 0.40438,0.58633 0.38709,0.20717 0.52685,0.0688 0.82949,-0.82112 0.27725,-0.81528 1.76622,-1.80327 2.87875,-1.91017 0.97169,-0.0934 1.28082,0.20626 0.3998,0.38751 -0.37643,0.0774 -0.61362,0.32444 -0.91614,0.95401 l -0.40819,0.84951 0.48917,0.18598 c 0.26904,0.1023 0.66052,0.17289 0.86996,0.15688 0.20944,-0.016 1.30994,-0.0199 2.44556,-0.009 1.56825,0.0156 2.13139,0.0871 2.34182,0.29751 0.63478,0.63478 1.5964,0.0203 1.5964,-1.02005 0,-0.81269 -0.66653,-1.24756 -0.77216,-0.50378 -0.0387,0.27207 -0.20765,0.43664 -0.4894,0.47655 -0.35709,0.0506 -0.41999,-0.0115 -0.36941,-0.36479 0.0335,-0.23416 0.25179,-0.52052 0.48503,-0.63634 0.38681,-0.19209 0.3388,-0.2219 -0.54647,-0.33934 -0.69653,-0.0924 -0.89447,-0.17685 -0.70113,-0.29915 0.41198,-0.26058 1.86807,-0.2084 3.1177,0.11175 1.54427,0.39562 1.84138,0.16705 1.11283,-0.8561 -0.30561,-0.42917 -0.74622,-0.64476 -2.26267,-1.10706 -1.03574,-0.31576 -2.09095,-0.66102 -2.34493,-0.76725 -0.25397,-0.10622 -1.08515,-0.26289 -1.84707,-0.34813 -0.76192,-0.0853 -1.8009,-0.23989 -2.30884,-0.34364 -0.50794,-0.10375 -2.7937,-0.2338 -5.07945,-0.289 -2.91367,-0.0704 -4.43197,-0.18349 -5.07945,-0.37845 -0.50795,-0.15295 -1.63004,-0.3289 -2.49355,-0.39102 -0.86351,-0.0621 -1.73625,-0.21339 -1.93942,-0.33617 -0.26465,-0.15991 -1.83624,-0.22521 -5.54122,-0.2302 -3.8998,-0.006 -5.60338,-0.0807 -6.92652,-0.30662 -0.9651,-0.16482 -2.17031,-0.37135 -2.67826,-0.45897 -1.75198,-0.30221 -5.11656,-0.23579 -7.41263,0.14635 -2.50021,0.41611 -3.31221,0.341 -4.41498,-0.40835 -0.53577,-0.36406 -0.95654,-0.49325 -1.60654,-0.49325 -0.62667,0 -0.88066,-0.0737 -0.88066,-0.25551 0,-0.14054 0.16624,-0.29899 0.36941,-0.35213 0.20318,-0.0531 0.36942,-0.1778 0.36942,-0.27705 0,-0.0993 -0.16624,-0.22393 -0.36942,-0.27707 -0.63653,-0.16645 -0.40361,-0.5006 0.34896,-0.5006 0.42378,0 0.89144,-0.14015 1.14042,-0.34177 l 0.42207,-0.34176 -0.89627,-0.10102 c -0.49295,-0.0556 -1.02692,-0.032 -1.1866,0.0524 -0.44489,0.23517 -1.95179,0.54754 -2.6348,0.54618 l -0.61086,-10e-4 0.55412,-0.36698 c 0.35391,-0.23437 0.86679,-0.36741 1.41946,-0.36819 0.47593,-7e-4 1.09932,-0.0989 1.3853,-0.21838 0.51444,-0.21484 0.51014,-0.21857 -0.40357,-0.35082 -1.07891,-0.15618 -2.36288,-0.0588 -3.78649,0.28716 -1.67366,0.40672 -2.71553,0.51939 -2.8463,0.30778 -0.1622,-0.26244 0.41633,-0.54598 1.39168,-0.68207 1.39085,-0.19407 3.5665,-0.6771 3.85581,-0.85605 0.17432,-0.10781 -0.83602,-0.14238 -2.72443,-0.0932 -1.65082,0.043 -3.00149,0.006 -3.00149,-0.0823 0,-0.0883 0.0208,-0.16336 0.0461,-0.16691 0.0254,-0.003 0.71112,-0.12658 1.52384,-0.27342 0.81271,-0.14684 1.91695,-0.26862 2.45386,-0.27062 0.54808,-0.002 1.16052,-0.12439 1.39647,-0.27899 0.23112,-0.15144 0.82851,-0.39822 1.32751,-0.5484 0.49901,-0.15018 1.03426,-0.43682 1.18945,-0.63698 0.15519,-0.20017 0.52364,-0.42278 0.81877,-0.49471 0.48378,-0.11789 0.5264,-0.0917 0.43289,0.26587 -0.1467,0.56097 0.20305,0.49447 0.42152,-0.0802 0.0997,-0.26223 0.28466,-0.44009 0.41102,-0.39523 0.35561,0.12622 0.17679,0.90303 -0.32954,1.43152 -0.51398,0.53649 -0.5705,0.73343 -0.21045,0.73343 0.2626,0 1.26857,-1.16998 1.46902,-1.70853 0.0662,-0.17778 0.24759,-0.32324 0.40317,-0.32324 0.43564,0 0.36847,1.2165 -0.0946,1.71357 -0.21213,0.2277 -0.29163,0.4338 -0.18147,0.47052 0.1078,0.0359 0.35363,-0.12909 0.54629,-0.36672 0.45506,-0.56131 0.70356,-0.30279 0.42313,0.44016 -0.12064,0.31959 -0.18475,0.61565 -0.14248,0.65792 0.15847,0.15848 0.48022,-0.19375 1.31908,-1.44404 0.4748,-0.70769 0.94573,-1.28671 1.0465,-1.28671 0.24993,0 0.0307,1.01446 -0.42081,1.94714 -0.41488,0.85702 -0.44201,1.00818 -0.18098,1.00818 0.10159,0 0.18471,-0.11175 0.18471,-0.24833 0,-0.13658 0.2122,-0.48983 0.47156,-0.78501 0.56526,-0.64332 0.962,-1.52371 1.21444,-2.69492 0.10258,-0.47591 0.31906,-0.97462 0.48107,-1.10824 0.26526,-0.21877 0.27948,-0.16022 0.14299,0.58824 -0.0834,0.45714 -0.16779,1.03897 -0.18759,1.29294 -0.0198,0.25398 -0.25611,0.9137 -0.52511,1.46606 -0.26902,0.55235 -0.48912,1.07675 -0.48912,1.16532 0,0.36837 0.37682,-0.1208 0.92582,-1.20188 0.32188,-0.63384 0.70245,-1.36023 0.8457,-1.6142 0.14325,-0.25397 0.31289,-0.7753 0.37697,-1.15851 0.12359,-0.739 0.43742,-1.13265 0.43742,-0.54868 0,0.75587 -0.42153,2.5609 -0.77232,3.30718 -0.56976,1.21211 -0.29387,1.37256 0.36873,0.21444 0.32356,-0.56552 0.58829,-1.12732 0.58829,-1.24845 0,-0.12113 0.2078,-0.67453 0.46177,-1.22977 0.25397,-0.55524 0.46704,-1.15251 0.47348,-1.32729 0.008,-0.21593 0.0709,-0.16979 0.19655,0.144 0.1401,0.35003 0.0859,0.80965 -0.2238,1.89928 -0.22475,0.79062 -0.47943,1.48125 -0.56596,1.53473 -0.0865,0.0535 -0.15509,0.23779 -0.15236,0.40957 0.003,0.22029 0.16535,0.12181 0.54915,-0.33413 0.2993,-0.35557 0.54642,-0.71782 0.54916,-0.805 0.003,-0.0872 0.19193,-0.56606 0.42043,-1.06416 0.26157,-0.57015 0.50493,-0.87131 0.65695,-0.81297 0.13281,0.051 0.43331,-0.11433 0.66778,-0.36733 0.23446,-0.25299 0.47911,-0.45999 0.54365,-0.45999 0.21724,0 0.11968,0.52249 -0.11354,0.608 -0.17589,0.0645 -0.17972,0.13911 -0.0161,0.3133 0.31803,0.33855 0.58535,0.0829 1.07783,-1.03063 0.26141,-0.5911 0.55902,-0.99891 0.72899,-0.99891 0.15798,0 0.28722,0.0887 0.28722,0.19716 0,0.19856 0.38066,0.13466 1.31014,-0.21994 0.45847,-0.17491 0.99036,-1.10591 1.66035,-2.90619 l 0.23078,-0.62013 0.24882,0.47489 c 0.22863,0.43635 0.79818,0.5172 0.79818,0.11331 0,-0.28513 0.98361,-1.31935 1.40838,-1.48084 0.24099,-0.0916 0.62959,-0.56493 0.89685,-1.09234 0.44747,-0.88305 0.50924,-0.93067 1.20732,-0.93067 0.53614,0 0.73572,0.0764 0.73572,0.28163 0,0.1549 0.19908,0.35733 0.4424,0.44983 0.24331,0.0925 0.47823,0.27571 0.52203,0.40712 0.0607,0.18194 0.20473,0.15694 0.60428,-0.10485 0.48211,-0.3159 0.54252,-0.31932 0.7451,-0.0422 0.35574,0.48649 0.99047,0.36763 1.34275,-0.25146 0.35976,-0.63224 0.87425,-0.76465 0.72294,-0.18606 -0.2005,0.76674 0.2775,0.5323 1.53005,-0.75043 1.39647,-1.43011 1.69575,-1.41613 0.63445,0.0297 -0.36277,0.49419 -0.61011,0.97858 -0.54964,1.07642 0.12201,0.19743 2.00717,0.10266 2.4065,-0.12098 0.13957,-0.0782 0.51162,-0.49813 0.82678,-0.93323 0.31516,-0.43512 0.8258,-0.94485 1.13474,-1.13273 0.30896,-0.18789 0.55963,-0.41371 0.55706,-0.50183 -0.003,-0.0881 0.20388,-0.49271 0.45878,-0.89906 0.42911,-0.68404 0.45502,-0.69882 0.34946,-0.19928 -0.0627,0.29674 -0.27511,0.74433 -0.47199,0.99462 -0.42587,0.5414 -0.46877,1.14409 -0.0814,1.14409 0.15209,0 0.61143,-0.30257 1.02077,-0.67238 0.84906,-0.76709 1.14673,-0.7201 0.56992,0.09 -0.3952,0.555 -0.50297,0.95956 -0.25103,0.94238 0.0762,-0.005 0.54481,-0.27587 1.04138,-0.60153 0.67686,-0.44388 1.13964,-0.98105 1.84889,-2.14608 0.9216,-1.51385 1.40416,-2.00183 1.40416,-1.41993 0,0.50653 -0.7979,1.83754 -1.56432,2.60951 -0.85801,0.86422 -1.41963,1.60042 -1.3069,1.71315 0.20434,0.20433 3.42534,-2.55056 3.42534,-2.92966 0,-0.27212 0.538,-0.91015 0.76746,-0.91015 0.30472,0 0.15015,0.68694 -0.23248,1.03321 -0.42711,0.38653 -1.36185,1.89563 -1.24594,2.01154 0.15521,0.15521 2.03785,-1.26157 2.59094,-1.94981 0.68643,-0.85418 0.83787,-0.88836 1.08272,-0.24435 0.17561,0.46186 0.20096,0.46936 0.63227,0.18675 0.49809,-0.32636 0.83094,-0.0887 0.47552,0.33961 -0.15705,0.18924 -0.15401,0.28686 0.0121,0.38954 0.12296,0.076 0.31233,0.013 0.42519,-0.14127 0.37039,-0.50654 1.73179,-1.0711 2.58288,-1.0711 0.88292,0 1.40585,-0.34083 1.40585,-0.91627 0,-0.4677 0.63142,-1.2037 0.89363,-1.04164 0.11804,0.073 0.21462,0.45728 0.21462,0.85407 0,0.90503 0.3793,1.13866 1.92586,1.18627 0.88977,0.0274 1.20762,-0.0414 1.53667,-0.33252 0.51712,-0.45753 0.67114,-0.32779 0.41395,0.34868 -0.10857,0.28558 -0.15161,0.63858 -0.0956,0.78445 0.0868,0.22623 0.16843,0.22155 0.55516,-0.0318 0.59161,-0.38763 0.6157,-0.37988 0.5116,0.1647 -0.16006,0.83729 0.42401,0.51536 1.51518,-0.83517 0.95154,-1.1777 1.4037,-1.45831 1.38978,-0.86248 -0.003,0.121 -0.25217,0.54649 -0.55412,0.94555 -0.64033,0.84629 -0.67614,1.02916 -0.20149,1.02916 0.19112,0 0.56939,-0.29091 0.84059,-0.64647 0.65911,-0.86416 0.92133,-0.83666 0.77455,0.0812 -0.14258,0.89167 0.1269,1.11834 0.69503,0.58462 0.52912,-0.49708 1.03649,-0.50655 1.03649,-0.0193 0,0.48419 0.0613,0.47208 1.04831,-0.20701 0.75345,-0.51839 0.82535,-0.53715 0.71401,-0.18636 -0.26817,0.84492 0.14526,0.77962 0.9599,-0.15163 0.45717,-0.52262 0.87473,-0.90671 0.92789,-0.85355 0.0532,0.0532 0.0138,0.20258 -0.0875,0.33202 -0.10133,0.12945 -0.2764,0.50925 -0.38905,0.84401 -0.17093,0.50799 -0.1571,0.62698 0.0837,0.71937 0.19199,0.0737 0.5233,-0.1608 0.99048,-0.70101 0.7784,-0.90007 1.12406,-0.88123 0.66633,0.0363 -0.32425,0.64998 -0.38978,1.27609 -0.13354,1.27609 0.0895,0 0.37048,-0.27014 0.62433,-0.60031 0.72408,-0.94171 1.39397,-1.61618 1.60526,-1.61618 0.36765,0 0.19161,0.59988 -0.3606,1.22881 -0.67876,0.77306 -0.74627,1.41018 -0.14026,1.32376 0.22762,-0.0325 0.51797,-0.27695 0.64521,-0.5433 0.26594,-0.55669 0.74614,-1.00446 0.90588,-0.84471 0.0599,0.0599 -0.0657,0.3915 -0.27907,0.73682 -0.35988,0.58229 -0.35952,0.86923 0.001,0.86923 0.0813,0 0.56991,-0.37493 1.08587,-0.83318 0.79956,-0.71013 0.99318,-0.80371 1.31093,-0.63366 0.42811,0.22912 0.67712,0.0909 1.54979,-0.86001 0.5145,-0.56067 0.61684,-0.59639 1.43148,-0.49978 0.83361,0.0989 1.15005,0.41981 0.69265,0.70249 -0.22676,0.14015 -0.23792,1.01529 -0.0174,1.3635 0.12584,0.19868 0.2368,0.1373 0.50085,-0.27707 0.72074,-1.13108 1.18812,-0.90717 0.75566,0.36203 -0.31468,0.92353 -0.25182,1.12282 0.26664,0.84535 0.41561,-0.22243 0.73329,-0.074 0.59771,0.27933 -0.0533,0.13885 0.005,0.31555 0.12997,0.39266 0.14446,0.0893 0.47888,-0.15538 0.92092,-0.67378 0.38176,-0.44768 0.7416,-0.76647 0.79966,-0.7084 0.0581,0.0581 -0.0312,0.45367 -0.19831,0.87915 -0.16713,0.42547 -0.2481,0.82935 -0.17995,0.8975 0.0681,0.0681 0.41234,-0.15563 0.76486,-0.49731 0.71263,-0.6907 0.93557,-0.66803 0.65621,0.0667 -0.15992,0.42063 -0.13727,0.48739 0.16537,0.48739 0.19287,0 0.59762,-0.20779 0.89945,-0.46177 0.73169,-0.61567 0.80482,-0.58418 0.47521,0.20468 -0.15315,0.36654 -0.23264,0.71224 -0.17665,0.76824 0.056,0.056 0.59496,-0.36858 1.19771,-0.9435 0.60274,-0.57492 1.21554,-1.04531 1.36176,-1.04531 0.14623,0 0.49194,0.17783 0.76826,0.39519 0.42753,0.33629 0.48504,0.48769 0.38595,1.01589 -0.13211,0.7042 0.0579,0.79151 0.54677,0.25129 0.42504,-0.46967 0.64648,-0.46967 0.64648,0 0,0.5174 0.35712,0.45575 1.0871,-0.18766 0.85018,-0.74936 1.18779,-0.75074 0.72079,-0.003 -0.40984,0.65625 0.0593,0.6599 0.60552,0.005 0.52106,-0.62507 0.54155,-0.63227 0.65381,-0.2297 0.14067,0.50446 0.17485,0.50743 0.73852,0.064 0.25367,-0.19954 0.6057,-0.31003 0.81414,-0.25552 0.27095,0.0708 0.36721,0.004 0.36721,-0.25352 0,-0.28615 -0.48616,-0.51032 -2.68045,-1.23592 -3.12943,-1.03484 -3.78429,-1.47005 -3.78429,-2.51499 0,-0.75297 -0.19871,-1.00477 -0.92354,-1.17034 -0.25397,-0.058 -1.0426,-0.27719 -1.7525,-0.48705 -0.70991,-0.20986 -1.54109,-0.41336 -1.84708,-0.45223 -0.30598,-0.0389 -1.42908,-0.35796 -2.49576,-0.70914 -1.06669,-0.35117 -2.60437,-0.78659 -3.41709,-0.9676 -0.81271,-0.18101 -2.35039,-0.56131 -3.41708,-0.84512 -1.06668,-0.2838 -2.85372,-0.69449 -3.9712,-0.91263 -1.11748,-0.21814 -2.40278,-0.48002 -2.85622,-0.58196 -0.45344,-0.10194 -1.70022,-0.22536 -2.77061,-0.27428 -2.69555,-0.12318 -6.79521,-0.58895 -8.78034,-0.99755 -5.46196,-1.12425 -14.43172,-1.586135 -25.58196,-1.31732 -1.66988,0.0403 -3.26937,-0.0293 -4.24826,-0.1847 -1.85099,-0.29389 -8.21945,-0.302291 -9.32772,-0.01229 -1.41002,0.36895 -3.14539,0.92629 -4.15591,1.33476 -0.55874,0.22585 -1.66006,0.60878 -2.44738,0.85094 -3.74597,1.15219 -4.59435,1.40281 -6.14152,1.81433 -0.91429,0.24319 -1.87015,0.52089 -2.12412,0.61713 -0.25398,0.0962 -0.87627,0.2359 -1.38287,0.31038 -1.09533,0.16101 -1.94186,0.56301 -1.94186,0.92213 0,0.43938 -1.27815,1.34191 -2.09299,1.4779 -0.42348,0.0707 -1.14438,0.18787 -1.60198,0.26043 -0.4576,0.0726 -0.94229,0.20009 -1.07708,0.28339 -0.15931,0.0985 -0.42191,-0.0179 -0.75038,-0.33265 -0.45377,-0.43474 -0.56529,-0.46321 -1.09324,-0.27917 -0.45403,0.15828 -0.58792,0.3125 -0.58792,0.67724 0,0.31156 -0.2541,0.71402 -0.74661,1.18253 -0.85137,0.8099 -1.01095,0.85319 -1.28149,0.3477 -0.2449,-0.45761 -0.57383,-0.34516 -1.69168,0.57827 -0.47125,0.38929 -0.94918,0.7078 -1.06206,0.7078 -0.28803,0 -0.25536,-0.41727 0.0659,-0.84206 0.28691,-0.37932 0.37792,-1.00904 0.1444,-0.99914 -0.0762,0.003 -0.29988,0.12791 -0.49707,0.27706 -0.1972,0.14915 -0.64344,0.27119 -0.99165,0.27119 -1.3739,0 -5.29036,1.50631 -5.71124,2.1966 -1.03053,1.69018 -2.50542,3.52933 -2.83031,3.52933 -0.25526,0 0.006,-0.554 0.80729,-1.71091 0.40541,-0.58544 0.68796,-1.11359 0.62788,-1.17366 -0.0601,-0.0601 -0.32366,-0.0378 -0.58574,0.0496 -0.46497,0.15498 -0.8994,0.64315 -2.93666,3.29996 -0.54666,0.71291 -1.14364,1.41941 -1.32663,1.57002 -0.31313,0.25772 -0.32329,0.23581 -0.17285,-0.37267 0.1636,-0.66174 0.17968,-2.37025 0.0238,-2.52616 -0.0477,-0.0477 -0.7988,0.25311 -1.66909,0.66848 -1.47132,0.70224 -2.11749,1.27141 -1.87988,1.65587 0.0544,0.088 -0.0231,0.26119 -0.17221,0.38493 -0.14909,0.12374 -0.64396,0.77732 -1.0997,1.45241 -1.10459,1.6362 -1.37101,1.96024 -1.50307,1.82818 -0.2093,-0.2093 0.12425,-0.85192 1.03084,-1.98605 0.8539,-1.06821 1.24034,-1.77654 1.06493,-1.95195 -0.1368,-0.1368 -3.86319,1.37684 -6.18274,2.5114 -1.24017,0.60661 -2.30549,1.10292 -2.36737,1.10292 -0.0619,0 -0.91737,0.38168 -1.90107,0.84818 -0.9837,0.4665 -2.24569,1.0639 -2.80443,1.32754 -1.03708,0.48936 -2.1617,1.48337 -2.88623,2.55102 -0.45566,0.67146 -2.40834,4.66537 -3.24284,6.63276 -0.66067,1.55758 -0.89531,3.38758 -0.98683,7.6964 -0.0359,1.69329 -0.20176,3.87936 -0.36846,4.85791 -0.23618,1.3865 -0.25441,1.83782 -0.0826,2.04486 0.27349,0.32954 0.54805,0.18161 0.54805,-0.29526 0,-0.76123 0.52147,-0.3122 0.92429,0.7959 0.37317,1.02654 1.54531,2.53289 1.78467,2.29353 0.11308,-0.11307 -1.12518,-2.6083 -1.5835,-3.19096 -0.30321,-0.38546 -0.38254,-0.73522 -0.36772,-1.62102 0.0148,-0.88529 0.0482,-1.0097 0.1544,-0.57539 0.0745,0.30476 0.30358,0.88659 0.50901,1.29294 0.20543,0.40636 0.42912,0.97007 0.49708,1.2527 0.18277,0.7601 1.7295,3.08793 2.05177,3.08793 0.15305,0 0.27827,-0.0288 0.27827,-0.064 0,-0.11651 -0.57359,-1.31352 -0.85444,-1.7831 -0.86225,-1.44172 -1.61692,-3.70186 -1.23188,-3.68938 0.18216,0.006 0.79337,1.3075 0.79337,1.68949 0,0.15415 0.17533,0.43861 0.38961,0.63214 0.21429,0.19353 0.6406,0.84866 0.94736,1.45585 0.30675,0.60719 1.10073,1.72928 1.76439,2.49354 1.22824,1.41443 1.51632,1.66484 1.51632,1.31801 0,-0.24459 -1.13476,-1.86786 -1.30575,-1.86786 -0.23152,0 -2.13724,-3.40074 -2.5359,-4.52534 -0.38666,-1.09068 -0.51626,-2.04848 -0.42489,-3.14002 l 0.0464,-0.55412 0.24896,0.64648 c 0.13692,0.35556 0.25649,0.89583 0.26569,1.20059 0.042,1.38912 1.28562,3.69523 3.37613,6.26038 0.43934,0.53908 0.42478,0.027 -0.017,-0.59829 -0.53022,-0.75046 -1.87009,-3.49192 -1.87009,-3.82631 0,-0.56401 0.42073,-0.15324 0.77683,0.75845 0.19661,0.50337 0.55048,1.12301 0.78636,1.37698 0.23589,0.25397 0.64176,0.88776 0.90193,1.40843 0.42895,0.85841 0.76608,1.17747 1.24413,1.17747 0.43428,0 0.0916,-0.82446 -0.63542,-1.52888 -0.82317,-0.79754 -1.59618,-2.36394 -1.59618,-3.23442 0,-0.46068 0.004,-0.46195 0.38587,-0.11655 0.21222,0.19205 0.63171,0.8447 0.93218,1.45031 0.30048,0.60562 0.92259,1.54154 1.38247,2.07984 0.7206,0.84347 0.88634,0.95185 1.19938,0.78432 0.28255,-0.15123 0.5014,-0.109 0.98534,0.19009 0.45358,0.28033 0.64303,0.32178 0.69929,0.15301 0.0424,-0.12732 0.009,-0.31641 -0.0739,-0.42019 -1.17565,-1.46854 -1.63177,-2.194 -1.63177,-2.59537 0,-0.63171 0.32696,-0.41992 0.68481,0.4436 0.61831,1.49201 1.76769,2.88916 2.96316,3.60192 0.51156,0.305 0.17574,-0.31359 -0.78517,-1.44631 -0.55884,-0.65874 -1.1745,-1.51182 -1.36815,-1.89573 -0.44641,-0.885 -1.06154,-3.31682 -0.88393,-3.49444 0.22562,-0.22562 0.48798,0.18556 0.74115,1.16153 0.13271,0.51162 0.46777,1.29656 0.74458,1.74432 0.27682,0.44776 0.77711,1.26035 1.11176,1.80574 0.65799,1.07239 1.31276,1.67601 1.82507,1.68252 0.46804,0.006 0.39978,-0.22366 -0.24933,-0.8387 -0.79456,-0.75284 -1.60013,-1.95291 -1.74001,-2.5921 -0.0646,-0.29497 -0.18739,-0.70254 -0.27299,-0.90571 -0.0856,-0.20318 -0.28189,-0.76423 -0.43619,-1.24678 -0.23964,-0.74942 -0.2423,-0.87736 -0.0182,-0.87736 0.23446,0 0.36174,0.26943 0.52871,1.11911 0.16749,0.85241 0.37954,1.41752 0.65433,1.74385 0.17109,0.20318 0.4428,0.5824 0.60379,0.84271 0.16099,0.26031 0.84841,1.09149 1.52759,1.84707 0.67918,0.75558 1.40271,1.5608 1.60785,1.78938 0.35701,0.39781 0.70361,0.54531 0.70361,0.29944 0,-0.0639 -0.27014,-0.42851 -0.6003,-0.81029 -1.33903,-1.54837 -1.79998,-2.21195 -2.32026,-3.34023 -0.64391,-1.39635 -0.95831,-2.30834 -0.95831,-2.77977 0,-0.43344 0.3461,-0.44662 0.48872,-0.0186 0.30624,0.91906 1.60989,3.35964 2.09659,3.92502 0.30608,0.35557 0.59844,0.77676 0.6497,0.936 0.12305,0.3822 2.07832,2.06456 2.30958,1.98721 0.0991,-0.0332 -0.15808,-0.43428 -0.57145,-0.89143 -0.41338,-0.45714 -0.95112,-1.08542 -1.19498,-1.39616 -0.49153,-0.62632 -1.41993,-2.93227 -1.24927,-3.10293 0.18091,-0.18091 0.42644,0.0665 0.42644,0.42969 0,0.18797 0.4987,0.93866 1.10824,1.66821 0.60953,0.72954 1.11017,1.38125 1.11253,1.44822 0.009,0.2668 2.19526,2.61534 2.43419,2.61534 0.1811,0 -0.13793,-0.67279 -0.36462,-0.76891 -0.66719,-0.28291 -3.1821,-4.5646 -3.1821,-5.41758 0,-0.51592 0.31706,-0.13914 1.28514,1.52717 0.9242,1.59079 2.89293,3.92049 3.31303,3.92049 0.1189,0 -0.10966,-0.43637 -0.50792,-0.96972 -1.2729,-1.70466 -2.48614,-4.78706 -1.69071,-4.29546 0.10212,0.0631 0.48434,0.72724 0.84937,1.47584 0.36503,0.7486 0.93255,1.67886 1.26116,2.06727 0.32861,0.3884 0.80464,1.01497 1.05784,1.39237 0.74085,1.10424 2.3745,2.24494 2.3745,1.65799 0,-0.0822 -0.52804,-0.69322 -1.17341,-1.35793 -0.64538,-0.66471 -1.31713,-1.49101 -1.49278,-1.83623 -0.6146,-1.20791 -1.0153,-2.36841 -0.85252,-2.46902 0.18513,-0.11442 0.7481,0.38532 0.7481,0.66408 0,0.66985 4.23072,5.47998 4.61241,5.24408 0.0901,-0.0556 -0.2437,-0.52621 -0.74173,-1.04565 -0.9728,-1.0146 -1.24968,-1.56014 -0.94599,-1.86383 0.13122,-0.13122 0.30029,-0.0107 0.54163,0.38618 0.43017,0.70736 2.36623,2.42769 2.73212,2.42769 0.42605,0 0.31281,-0.26029 -0.38016,-0.87379 -0.35557,-0.31479 -0.64648,-0.68441 -0.64648,-0.82137 0,-0.13696 -0.18378,-0.33107 -0.40839,-0.43135 -0.58672,-0.26195 -1.18391,-1.3424 -0.89894,-1.6264 0.23634,-0.23555 0.71644,0.24944 1.15525,1.16701 0.25541,0.53409 2.3485,2.48282 2.50195,2.32938 0.11495,-0.11495 -0.0579,-0.37051 -1.19639,-1.76896 -0.75817,-0.93128 -1.13217,-1.75154 -0.90306,-1.98065 0.15628,-0.15628 0.67479,0.30846 1.06936,0.95846 0.45415,0.74815 3.13326,3.41708 3.43012,3.41708 0.38864,0 0.2893,-0.16885 -0.86594,-1.4719 -0.87989,-0.99247 -1.85218,-2.60338 -1.85218,-3.06874 0,-0.32621 0.45607,0.0827 0.99567,0.89268 1.17989,1.77113 4.54205,4.63966 4.54633,3.87885 z m -0.70281,-3.32541 c -0.34079,-0.11706 -1.14505,-1.44379 -1.14505,-1.88889 0,-0.6088 0.2777,-0.4318 0.90447,0.57645 0.59326,0.95435 0.68701,1.46578 0.24058,1.31244 z m -2.62271,-1.06139 c 0,-0.16931 0.0893,-0.27805 0.19857,-0.24165 0.1092,0.0364 0.19856,0.14515 0.19856,0.24165 0,0.0965 -0.0894,0.20526 -0.19856,0.24167 -0.10922,0.0364 -0.19857,-0.0724 -0.19857,-0.24167 z m -8.01575,-1.14623 c -0.65312,-1.69 -0.31762,-1.95777 0.43528,-0.34741 0.5326,1.13915 0.58874,1.586 0.19924,1.586 -0.0857,0 -0.37125,-0.55737 -0.63452,-1.23859 z m -15.55852,0.25771 c -0.51072,-0.5249 -0.74615,-0.99676 -1.18906,-2.38318 -0.45822,-1.43436 -0.18865,-1.85412 0.37395,-0.58228 0.21781,0.49241 0.6323,1.27008 0.92108,1.72817 0.66351,1.05249 0.86121,1.66804 0.53087,1.65288 -0.13383,-0.006 -0.4204,-0.19315 -0.63684,-0.41559 z m 17.18511,-0.56621 c -0.15648,-0.4078 0.0517,-0.61599 0.33385,-0.33384 0.16659,0.16658 0.16729,0.26984 0.003,0.43416 -0.16432,0.16432 -0.24442,0.14046 -0.33682,-0.10032 z m 19.8728,-0.58795 c 0,-0.15838 0.0831,-0.23659 0.1847,-0.1738 0.10159,0.0627 0.18471,0.19237 0.18471,0.28796 0,0.0956 -0.0831,0.1738 -0.18471,0.1738 -0.10159,0 -0.1847,-0.12958 -0.1847,-0.28796 z m 8.38341,-0.54898 c -0.16848,-0.25714 -0.24636,-0.52728 -0.17306,-0.6003 0.13875,-0.13821 0.8403,0.61617 0.8403,0.90358 0,0.32268 -0.36614,0.15626 -0.66724,-0.30328 z m 7.57336,0.14146 c -0.19569,-0.12946 -0.81078,-1.20635 -0.81078,-1.41948 0,-0.0559 0.1039,-0.10152 0.23088,-0.10152 0.25785,1e-5 1.24678,1.16424 1.24678,1.46779 0,0.22353 -0.36538,0.25269 -0.66688,0.0532 z m -11.23142,-0.20326 c -0.0796,-0.12874 -0.0948,-0.28396 -0.0338,-0.34492 0.16531,-0.16531 0.34554,0.0778 0.25626,0.34566 -0.0625,0.1877 -0.10607,0.18756 -0.22244,-7e-4 z m 9.19592,-0.66753 c -0.15593,-0.40633 0.0154,-0.53274 0.28383,-0.20935 0.15108,0.18204 0.15892,0.30283 0.025,0.38558 -0.10723,0.0662 -0.24622,-0.0131 -0.30884,-0.17623 z m -50.64845,-0.15072 c -0.31885,-0.38689 -0.51718,-1.79244 -0.25292,-1.79244 0.25092,0 0.63714,1.16557 0.55986,1.68964 -0.0538,0.36454 -0.0831,0.37437 -0.30694,0.1028 z m 54.55143,-1.23832 c -0.0628,-0.10159 -0.0261,-0.1847 0.0814,-0.1847 0.10759,0 0.19561,0.0831 0.19561,0.1847 0,0.10159 -0.0366,0.18471 -0.0814,0.18471 -0.0448,0 -0.13282,-0.0831 -0.1956,-0.18471 z m -62.80047,-0.92354 c -0.0628,-0.10159 -0.0261,-0.1847 0.0815,-0.1847 0.10759,0 0.19561,0.0831 0.19561,0.1847 0,0.10159 -0.0367,0.18471 -0.0815,0.18471 -0.0448,0 -0.13282,-0.0831 -0.1956,-0.18471 z m 6.01216,-0.35228 c -0.11839,-0.2212 -0.18967,-0.71036 -0.15839,-1.08702 l 0.0569,-0.68483 0.30348,0.85226 c 0.33068,0.92868 0.17713,1.62791 -0.20195,0.91959 z m -1.67154,-0.66361 c 0,-0.45715 0.0831,-0.83118 0.18471,-0.83118 0.10159,0 0.1847,0.37403 0.1847,0.83118 0,0.45716 -0.0831,0.83119 -0.1847,0.83119 -0.1016,0 -0.18471,-0.37403 -0.18471,-0.83119 z m 61.26124,-1.13902 c -0.19506,-0.19507 -0.1432,-0.7662 0.0822,-0.90552 0.23806,-0.14713 0.52654,0.23635 0.53064,0.70542 0.003,0.31827 -0.37224,0.44071 -0.61286,0.2001 z m 8.06601,-0.53576 c -0.1333,-0.34738 0.19356,-0.7262 0.476,-0.55165 0.30445,0.18816 0.24075,0.84113 -0.0821,0.84113 -0.15557,0 -0.33284,-0.13027 -0.39394,-0.28948 z m -2.71166,-0.23301 c -0.35315,-0.39023 -0.40283,-1.05804 -0.093,-1.24955 0.29487,-0.18224 0.71081,0.44301 0.71081,1.06852 0,0.60166 -0.18748,0.65659 -0.61785,0.18103 z m 10.22263,-0.58575 c 0,-0.20523 0.12313,-0.36942 0.27706,-0.36942 0.15392,0 0.27706,0.16419 0.27706,0.36942 0,0.20523 -0.12314,0.36941 -0.27706,0.36941 -0.15393,0 -0.27706,-0.16418 -0.27706,-0.36941 z m 17.1316,-3.81647 c 0.12698,-0.0512 0.33477,-0.0512 0.46176,0 0.12699,0.0512 0.0231,0.0932 -0.23088,0.0932 -0.25398,0 -0.35788,-0.042 -0.23088,-0.0932 z m -95.22515,-8.73522 c 0.25485,-0.4081 0.43429,-0.35722 0.26805,0.076 -0.0602,0.15677 -0.1958,0.28503 -0.30144,0.28503 -0.12157,0 -0.10931,-0.13252 0.0334,-0.36101 z m 3.1024,-1.71178 c 0,-0.16929 0.21248,-0.54102 0.47217,-0.82605 l 0.47218,-0.51824 -0.12207,0.46176 c -0.0672,0.25398 -0.2796,0.6257 -0.47217,0.82605 -0.30416,0.31647 -0.35011,0.32389 -0.35011,0.0565 z m -1.29956,-1.22158 c 0.12168,-0.23728 0.2719,-0.38076 0.33382,-0.31885 0.0619,0.0619 -0.0376,0.25605 -0.22125,0.43142 -0.31913,0.3048 -0.32408,0.29985 -0.11257,-0.11257 z m 42.04942,-0.54904 c -0.16023,-0.25925 0.33165,-0.40486 1.3676,-0.40486 0.49364,0 0.9489,-0.0831 1.01169,-0.18471 0.0628,-0.10158 0.27311,-0.1847 0.46739,-0.1847 0.19429,0 0.82908,-0.21043 1.41064,-0.46763 1.09804,-0.48561 1.76726,-0.49167 1.3695,-0.0124 -0.11613,0.13992 -0.39563,0.2994 -0.6211,0.35438 -0.22547,0.055 -0.74242,0.19226 -1.14878,0.30508 -0.40635,0.11283 -1.23754,0.28054 -1.84707,0.37269 -0.60954,0.0922 -1.28587,0.22067 -1.50299,0.28558 -0.21711,0.0649 -0.44521,0.0364 -0.50688,-0.0634 z m -37.24042,-0.25015 c 0,-0.30414 1.11284,-2.00178 1.3122,-2.00178 0.25873,0 0.20543,0.16222 -0.40222,1.22429 -0.53618,0.93714 -0.90998,1.25652 -0.90998,0.77749 z m 3.14003,-1.24392 c 0,-0.25626 1.10311,-2.1778 1.6953,-2.95308 0.55277,-0.72367 0.38241,-0.0946 -0.33347,1.23137 -0.71899,1.33174 -1.36183,2.14447 -1.36183,1.72171 z m 51.95442,-1.66902 c -0.1111,-0.28174 -0.11325,-0.74922 -0.006,-1.25317 0.11039,-0.51758 0.0995,-1.46494 -0.0306,-2.66055 -0.11109,-1.02121 -0.1526,-1.93666 -0.0922,-2.03434 0.21369,-0.34576 0.5714,0.20616 0.80228,1.23785 0.24364,1.08869 0.16463,2.36786 -0.25593,4.14371 -0.21959,0.92718 -0.25607,0.97665 -0.41779,0.5665 z m -45.66854,-1.27888 c -0.01,-0.42827 2.91962,-4.13026 3.15391,-3.98546 0.32177,0.19887 0.31579,0.20803 -1.49833,2.29665 -0.39707,0.45715 -0.93071,1.08053 -1.18585,1.3853 -0.25514,0.30477 -0.46652,0.44135 -0.46973,0.30351 z m 48.95456,-1.82735 c 0.007,-0.17778 0.0844,-0.48947 0.17173,-0.69264 0.12734,-0.29634 0.16131,-0.2324 0.17172,0.32323 0.007,0.38096 -0.0701,0.69265 -0.17172,0.69265 -0.10159,0 -0.17887,-0.14545 -0.17173,-0.32324 z m -1.27293,-0.81139 c 0.0327,-0.34105 0.14247,-0.5993 0.24406,-0.57391 0.27444,0.0686 0.22378,1.01826 -0.0593,1.11264 -0.17702,0.059 -0.22776,-0.089 -0.18471,-0.53873 z m 3.23294,-0.27868 c -0.15597,-0.15597 -0.16396,-0.85852 -0.0142,-1.24877 0.1636,-0.42631 0.44287,-0.16562 0.4396,0.41032 -0.004,0.56486 -0.2374,1.02644 -0.42539,0.83845 z m 3.41457,-3.03053 c -0.0171,-0.36154 0.091,-0.81869 0.24014,-1.01589 0.24537,-0.32442 0.27174,-0.32778 0.27706,-0.0353 0.003,0.17778 -0.0722,0.32324 -0.16768,0.32324 -0.0955,0 -0.20617,0.3117 -0.24602,0.69265 l -0.0725,0.69266 z m 10.31256,-0.031 c 0,-0.33671 0.32745,-0.61578 0.50924,-0.43399 0.0634,0.0634 -0.0253,0.25576 -0.197,0.42749 -0.28795,0.28795 -0.31224,0.28846 -0.31224,0.006 z m -6.89738,-0.83451 c -0.0488,-0.079 0.0285,-0.304 0.17194,-0.50008 0.2544,-0.34791 0.26068,-0.34701 0.26068,0.0373 0,0.41153 -0.2795,0.71052 -0.43262,0.46277 z m 4.49618,-0.009 c 0,-0.3393 0.21914,-0.77655 0.38918,-0.77655 0.26428,0 0.19024,0.4879 -0.11211,0.73883 -0.16776,0.13922 -0.27707,0.15411 -0.27707,0.0377 z m -6.00519,-0.80068 c 0.0715,-0.44388 0.26753,-1.01485 0.43555,-1.26882 l 0.30549,-0.46177 0.0546,0.46778 c 0.072,0.61763 -0.35772,1.88339 -0.67483,1.9875 -0.19825,0.0651 -0.22358,-0.0868 -0.12078,-0.72469 z m -44.16259,0.10138 c 0.0616,-0.1607 0.11212,-0.36849 0.11212,-0.46177 0,-0.0933 0.12467,-0.1696 0.27706,-0.1696 0.33252,0 0.3636,0.39369 0.0554,0.70188 -0.31562,0.31564 -0.57686,0.27421 -0.44458,-0.0705 z m 47.59035,-0.46248 c 0.1134,-0.21188 0.25126,-0.34015 0.30638,-0.28503 0.15224,0.15225 -0.0916,0.67026 -0.31555,0.67026 -0.1366,0 -0.13379,-0.11812 0.009,-0.38523 z M 295.525,108.6204 c 0,-0.10159 0.088,-0.18471 0.19561,-0.18471 0.10759,0 0.14424,0.0831 0.0815,0.18471 -0.0628,0.10159 -0.15081,0.1847 -0.19561,0.1847 -0.0448,0 -0.0815,-0.0831 -0.0815,-0.1847 z m -3.32473,-0.26616 c 0,-0.15838 0.0831,-0.28796 0.18472,-0.28796 0.10158,0 0.1847,0.0782 0.1847,0.17381 0,0.0956 -0.0831,0.22517 -0.1847,0.28796 -0.1016,0.0628 -0.18472,-0.0154 -0.18472,-0.17381 z M 260.68,152.39539 c 0.31332,-0.62807 0.30911,-0.63235 -0.33304,-0.33977 -0.45735,0.20838 -0.59786,0.5202 -0.34731,0.77075 0.23186,0.23186 0.40412,0.12273 0.68035,-0.43098 z m 3.86037,-0.63662 c 0.52291,-0.65536 0.69975,-1.50488 0.27705,-1.33095 -0.12698,0.0523 -0.68803,0.23495 -1.24677,0.40599 -1.64629,0.50395 -1.87728,0.6229 -1.81405,0.93417 0.0422,0.20759 0.31621,0.30807 0.9475,0.3474 0.48848,0.0304 0.9387,0.10589 1.00049,0.16767 0.19901,0.19901 0.31844,0.12409 0.83578,-0.52428 z m -5.22448,-0.27478 c 0.27596,-0.51566 0.24121,-0.59916 -0.22439,-0.539 -0.22857,0.0295 -0.51949,-0.011 -0.64647,-0.09 -0.30415,-0.18934 -0.31202,0.46189 -0.009,0.76467 0.32366,0.32365 0.66222,0.27148 0.8801,-0.13563 z m 7.77107,-0.0583 c 0.10034,-0.22858 0.34434,-0.68286 0.54223,-1.00951 0.19789,-0.32665 0.28301,-0.64138 0.18915,-0.69939 -0.2253,-0.13924 -0.92296,0.56737 -0.92296,0.9348 0,0.15837 -0.0831,0.23658 -0.18471,0.1738 -0.10159,-0.0628 -0.1847,-0.27058 -0.1847,-0.46177 0,-0.45751 -0.28103,-0.61442 -0.69939,-0.39052 -0.47699,0.25528 -0.33684,1.35293 0.20733,1.62384 0.62835,0.31281 0.85687,0.27565 1.05305,-0.17125 z m -39.29472,-0.40979 c -0.33243,-0.45674 -0.79363,-0.62455 -0.79363,-0.28877 0,0.14078 0.81646,0.70303 1.07069,0.73734 0.0302,0.004 -0.0945,-0.19779 -0.27706,-0.44857 z m 29.95356,-0.79081 c 0.0564,-0.38096 0.21564,-1.04465 0.35389,-1.47487 0.21249,-0.66123 0.21221,-0.81471 -0.002,-0.99233 -0.33723,-0.27992 -0.32264,-0.719 0.0239,-0.719 0.1724,0 0.27706,-0.17444 0.27706,-0.46177 0,-0.50997 -0.14152,-0.55767 -0.78487,-0.26454 -0.33423,0.15227 -0.43662,0.35217 -0.44939,0.87736 -0.014,0.57647 -0.0539,0.95372 -0.22315,2.11161 -0.0112,0.0762 -0.0918,0.13854 -0.17921,0.13854 -0.0874,0 -0.16262,-0.58454 -0.1671,-1.29898 -0.0111,-1.77144 -0.12164,-1.87267 -1.61954,-1.48296 -0.65983,0.17167 -1.29825,0.41068 -1.4187,0.53114 -0.12046,0.12046 -0.40544,0.21902 -0.63328,0.21902 -0.59323,0 -1.72834,0.71796 -1.72834,1.09318 0,0.17482 -0.2078,0.49853 -0.46177,0.71936 -0.47743,0.41512 -0.61939,1.20826 -0.25641,1.4326 0.11295,0.0698 0.27596,0.0124 0.36226,-0.12764 0.10249,-0.16628 0.65571,-0.28656 1.59553,-0.34689 l 1.43865,-0.0924 0.0924,-0.72439 c 0.0508,-0.39842 0.20864,-0.76272 0.35078,-0.80957 0.20471,-0.0675 0.23399,0.0676 0.14089,0.64979 -0.14284,0.89325 -0.008,1.06517 0.54915,0.70011 0.38909,-0.25494 0.44005,-0.24743 0.62154,0.0917 0.10874,0.20317 0.36363,0.36941 0.56642,0.36941 0.20279,0 0.41656,0.12468 0.47503,0.27706 0.0585,0.15239 0.30146,0.27707 0.53996,0.27707 0.35973,0 0.45111,-0.11806 0.53615,-0.69266 z m -2.41823,-1.93942 c 0.0481,-0.43176 0.0939,-0.85226 0.10174,-0.93444 0.008,-0.0822 0.0841,-0.10623 0.16957,-0.0534 0.0854,0.0528 0.16104,0.4733 0.16802,0.93444 0.009,0.61782 -0.0583,0.83843 -0.25709,0.83843 -0.20794,0 -0.2497,-0.17987 -0.18224,-0.78501 z m -3.68049,0.3995 c -0.19034,-0.30799 0.23777,-0.66117 0.49257,-0.40636 0.21314,0.21314 0.0797,0.60715 -0.20556,0.60715 -0.0896,0 -0.21875,-0.0903 -0.28701,-0.20079 z m 7.08314,0.85935 c -0.0299,-0.20775 -0.19977,-0.40544 -0.37755,-0.43933 -0.2666,-0.0508 -0.32324,0.0753 -0.32324,0.71939 0,0.77491 0.003,0.77834 0.37755,0.43933 0.20764,-0.18792 0.3531,-0.51165 0.32324,-0.71939 z m 10.38164,0.24236 c 0,-0.19073 -0.0802,-0.34679 -0.1782,-0.34679 -0.25248,0 -0.60098,0.7088 -0.46037,0.93632 0.16904,0.27351 0.63857,-0.15997 0.63857,-0.58953 z m 1.22922,0.10701 c 0.17183,-0.44778 -0.0679,-0.52861 -0.29721,-0.10021 -0.14296,0.26713 -0.14577,0.38524 -0.009,0.38524 0.10834,0 0.24622,-0.12826 0.30637,-0.28503 z M 162.0855,146.71562 c -0.0649,-0.48255 -0.1408,-1.29294 -0.16858,-1.80089 -0.0278,-0.50795 -0.15247,-1.27679 -0.27707,-1.70854 -0.19778,-0.6853 -0.29296,-0.78501 -0.74938,-0.78501 -0.45973,0 -0.53622,0.0824 -0.63367,0.68295 -0.12902,0.79502 -0.0531,0.93588 0.33203,0.61625 0.23312,-0.19347 0.30904,-0.15069 0.46624,0.26276 0.10327,0.27163 0.18776,0.93321 0.18776,1.47017 0,1.18186 0.3058,2.13967 0.68314,2.13967 0.2246,0 0.25506,-0.1675 0.15953,-0.87736 z m 99.82278,0.0353 c 0,-0.38198 0.50931,-0.32895 0.63469,0.0661 0.15476,0.48761 1.39709,0.33223 1.39709,-0.17474 0,-0.27833 -0.11104,-0.34458 -0.50794,-0.30303 -0.43265,0.0453 -0.51661,-0.0221 -0.56639,-0.45478 -0.0507,-0.44061 -0.1399,-0.50794 -0.67289,-0.50794 -0.3899,0 -0.65542,0.10676 -0.72656,0.29216 -0.14748,0.38431 -0.14372,1.27703 0.006,1.42675 0.17238,0.17237 0.43601,-0.0359 0.43601,-0.34451 z m 3.14003,-0.53232 c 0,-0.24798 0.0845,-0.50308 0.18772,-0.56688 0.24514,-0.15151 0.05,-0.45991 -0.29098,-0.45991 -0.18738,0 -0.26616,0.21867 -0.26616,0.73883 0,0.40635 0.0831,0.73882 0.18471,0.73882 0.10159,0 0.18471,-0.20289 0.18471,-0.45086 z m 5.32519,0.0153 c 0.0536,-0.27851 -0.0119,-0.31521 -0.36729,-0.20582 -0.55516,0.17086 -0.58796,0.20524 -0.43385,0.4546 0.19003,0.30746 0.72608,0.141 0.80114,-0.24878 z m -109.68762,-0.2571 c -0.001,-0.17779 -0.0802,-0.44559 -0.17477,-0.59512 -0.1473,-0.23291 -0.18944,-0.2263 -0.294,0.0461 -0.14538,0.37886 0.0136,0.87219 0.2811,0.87219 0.10477,0 0.18923,-0.14546 0.18767,-0.32324 z m 113.45371,-0.37778 c 0.34132,-0.57779 0.17372,-1.08313 -0.29905,-0.90171 -0.19388,0.0744 -0.2957,0.33806 -0.2957,0.76574 0,0.78623 0.18558,0.82865 0.59475,0.13597 z m -7.36895,0.0254 c 0.15431,-0.15431 -0.22181,-0.61822 -0.49818,-0.61447 -0.3707,0.005 -0.72082,0.31969 -0.59044,0.53064 0.13769,0.22279 0.89161,0.28084 1.08862,0.0838 z m 3.76036,-0.28251 c -0.059,-0.14735 -0.10274,-0.10358 -0.1116,0.11159 -0.008,0.19471 0.0356,0.30381 0.097,0.24243 0.0614,-0.0614 0.0679,-0.22069 0.0146,-0.35402 z m 5.23033,-0.55169 c 0,-0.22173 -0.63054,-0.18692 -0.86523,0.0478 -0.11015,0.11016 -0.15751,0.36383 -0.10524,0.56372 0.0924,0.35348 0.10703,0.35218 0.53275,-0.0477 0.24075,-0.22616 0.43772,-0.47984 0.43772,-0.56372 z m -98.86876,-0.65259 c 0.0487,-0.58846 0.2046,-1.35021 0.3465,-1.69278 0.1419,-0.34257 0.258,-0.80293 0.258,-1.02301 0,-0.22009 0.17332,-0.72943 0.38515,-1.13186 0.58493,-1.11125 0.71965,-1.66991 0.91139,-3.77938 0.097,-1.06669 0.29618,-2.39658 0.44272,-2.95532 0.29744,-1.13413 0.0695,-1.76808 -0.27763,-0.77223 -0.12561,0.3603 -0.36793,0.6305 -0.62285,0.69448 -0.54856,0.13767 -1.59844,1.63773 -1.79967,2.5713 -0.0876,0.40636 -0.27629,1.77781 -0.41934,3.04767 -0.14306,1.26986 -0.34818,2.5992 -0.45583,2.95409 -0.35957,1.18545 -0.24892,1.95956 0.38298,2.67926 0.31829,0.3625 0.61952,0.61829 0.6694,0.56841 0.0499,-0.0499 0.13052,-0.57217 0.17918,-1.16063 z m 108.84295,-4.94878 c 0,-0.15238 -0.0831,-0.27706 -0.18471,-0.27706 -0.10159,0 -0.1847,0.12468 -0.1847,0.27706 0,0.15239 0.0831,0.27706 0.1847,0.27706 0.10159,0 0.18471,-0.12467 0.18471,-0.27706 z m 2.6021,-7.02058 c 0.24558,-0.77191 0.25654,-1.057 0.0674,-1.75301 -0.40274,-1.48201 -0.62396,-1.86172 -1.60834,-2.76065 -2.55632,-2.33438 -4.38394,-3.65267 -9.28062,-6.69426 -3.13526,-1.94748 -4.89826,-2.72268 -8.50054,-3.73777 -0.81491,-0.22963 -1.68628,-0.52703 -1.93639,-0.66088 -0.70529,-0.37746 -7.11577,-0.33545 -7.85384,0.0515 -0.60026,0.31468 -2.11565,1.79611 -1.83728,1.79611 0.0948,0 0.65737,-0.29935 1.25013,-0.66522 0.59275,-0.36587 1.13266,-0.6103 1.19979,-0.54317 0.0672,0.0671 -0.31232,0.54077 -0.84322,1.05255 -0.5309,0.51177 -0.96527,1.00734 -0.96527,1.10125 0,0.0939 -0.19149,0.258 -0.42555,0.36465 -0.43605,0.19868 -0.9627,0.8727 -0.80505,1.03034 0.11367,0.11368 1.1491,-0.57681 2.23308,-1.48913 0.46968,-0.39531 0.9142,-0.65703 0.98782,-0.58159 0.13087,0.13411 -1.39336,1.57591 -1.66706,1.57689 -0.0762,1.9e-4 -0.13853,0.10951 -0.13853,0.24273 0,0.13323 -0.17804,0.43335 -0.39565,0.66692 l -0.39565,0.42468 0.53418,-0.10648 c 0.2938,-0.0586 0.86665,-0.16099 1.27301,-0.22762 0.40636,-0.0666 1.02974,-0.29405 1.3853,-0.50539 l 0.64648,-0.38424 -0.41414,0.45289 c -1.41875,1.55156 -1.88976,2.14716 -1.89189,2.39233 -10e-4,0.18836 0.16015,0.11323 0.50534,-0.23468 0.83491,-0.84148 2.16573,-1.80184 2.23111,-1.61003 0.0336,0.0984 -0.19737,0.49143 -0.51317,0.87331 l -0.57417,0.69434 0.6014,0.0923 0.60141,0.0924 -0.68854,0.76121 c -0.65267,0.72156 -0.86353,1.17821 -0.54403,1.17821 0.0795,0 0.84945,-0.65351 1.71106,-1.45225 0.8616,-0.79874 1.9331,-1.62935 2.3811,-1.8458 0.92388,-0.44637 1.18484,-0.41748 0.46853,0.0519 -0.26298,0.17231 -0.78506,0.6605 -1.16019,1.08486 -0.37512,0.42437 -0.91062,0.9781 -1.18999,1.23053 -0.6443,0.58214 -0.70514,1.04422 -0.0924,0.70148 0.22858,-0.12785 0.62339,-0.40944 0.87736,-0.62576 0.70604,-0.60137 2.03178,-1.38637 2.03178,-1.20307 0,0.0897 -0.33735,0.43795 -0.74966,0.77403 -1.05044,0.8562 -1.59455,1.64515 -1.27207,1.84445 0.33647,0.20795 0.66737,0.002 1.76785,-1.09805 0.98038,-0.98039 1.54255,-1.25279 1.17742,-0.57053 -0.10874,0.20319 -0.26515,0.36942 -0.34758,0.36942 -0.21312,0 -1.4995,1.27527 -1.4995,1.48655 0,0.3635 0.56856,0.14995 1.74484,-0.65537 0.66774,-0.45715 1.25482,-0.83118 1.30463,-0.83118 0.28964,0 -0.0303,0.37744 -0.92534,1.09163 -0.55873,0.44586 -1.01589,0.9229 -1.01589,1.06011 0,0.37886 0.25021,0.30382 1.01589,-0.30467 0.79197,-0.62937 1.42526,-0.77965 0.99233,-0.23547 -0.13942,0.17525 -0.48979,0.52162 -0.77861,0.76969 -0.46996,0.40368 -1.41431,1.70949 -1.41431,1.95566 0,0.33637 0.6589,-0.0387 1.50651,-0.85751 1.56909,-1.51583 3.75461,-2.92532 4.53594,-2.92532 0.48852,0 -1.07526,1.26301 -1.72603,1.39406 -0.7522,0.15148 -2.41359,1.69089 -2.13046,1.97403 0.14522,0.14521 0.39739,0.0653 0.90549,-0.28676 0.38732,-0.26842 0.97403,-0.54199 1.30378,-0.60794 0.32975,-0.066 0.64428,-0.19229 0.69896,-0.28076 0.0547,-0.0885 0.18781,-0.16085 0.29584,-0.16085 0.12386,0 0.11148,0.10235 -0.0335,0.27706 -0.12647,0.15238 -0.37977,0.27706 -0.56289,0.27706 -0.18312,0 -0.9214,0.55205 -1.64064,1.22679 -1.03235,0.96849 -1.26384,1.2796 -1.09947,1.47766 0.3149,0.37942 0.41261,0.33049 1.48853,-0.74543 0.86777,-0.86776 1.8348,-1.46777 2.96389,-1.83896 0.19071,-0.0627 0.54439,0.0857 0.88265,0.3703 0.44607,0.37534 0.51983,0.52864 0.3518,0.73111 -0.11694,0.1409 -0.28217,0.25619 -0.36718,0.25619 -0.30837,0 -1.83199,1.01869 -1.83199,1.22487 0,0.3606 1.27795,0.47372 2.62734,0.23258 1.06361,-0.19008 1.35779,-0.18665 1.6856,0.0197 0.37783,0.2378 5.23766,1.10291 6.21815,1.10691 0.2555,10e-4 1.66851,0.37025 3.14002,0.82047 1.47152,0.45021 2.80016,0.80269 2.95255,0.78329 0.15676,-0.02 0.40439,-0.43551 0.57032,-0.9571 z m -13.39635,-2.84326 c -0.17054,-0.27595 1.01554,-0.60841 1.30714,-0.36641 0.13622,0.11306 0.20214,0.27927 0.14646,0.36934 -0.13265,0.21463 -1.32063,0.21223 -1.4536,-0.003 z m -2.59703,-3.34273 c 0.0628,-0.10158 0.15081,-0.1847 0.19561,-0.1847 0.0448,0 0.0815,0.0831 0.0815,0.1847 0,0.10159 -0.088,0.18471 -0.19561,0.18471 -0.10759,0 -0.14424,-0.0831 -0.0815,-0.18471 z m -4.15591,-0.44857 c 0,-0.0436 0.13062,-0.20977 0.29025,-0.36941 0.42614,-0.42614 0.74865,-0.35447 0.35623,0.0792 -0.30352,0.33538 -0.64648,0.48936 -0.64648,0.29025 z m 2.21649,-1.66017 c 0,-0.16085 0.1316,-0.29245 0.29245,-0.29245 0.16085,0 0.25956,0.0987 0.21934,0.21934 -0.11416,0.34249 -0.51179,0.3993 -0.51179,0.0731 z m -1.92746,-0.0884 c -0.0562,-0.0909 0.0288,-0.21562 0.1889,-0.27706 0.50861,-0.19517 0.68919,-0.12815 0.4456,0.16536 -0.26084,0.31429 -0.48491,0.35374 -0.6345,0.1117 z m -1.12021,-2.05113 c 0.0628,-0.10159 0.15081,-0.18471 0.19561,-0.18471 0.0448,0 0.0815,0.0831 0.0815,0.18471 0,0.10159 -0.088,0.18471 -0.19561,0.18471 -0.10758,0 -0.14423,-0.0831 -0.0815,-0.18471 z m -8.21947,-0.96972 c 1e-5,-0.27873 1.17544,-1.24677 1.51388,-1.24677 0.13237,0 -0.12305,0.33247 -0.5676,0.73883 -0.88984,0.8134 -0.94629,0.8437 -0.94628,0.50794 z m 2.86296,-2.1703 c 0.0628,-0.10159 0.19727,-0.18471 0.29886,-0.18471 0.10159,0 0.13334,0.0831 0.0705,0.18471 -0.0628,0.10159 -0.19727,0.1847 -0.29886,0.1847 -0.10159,0 -0.13334,-0.0831 -0.0706,-0.1847 z m -89.30596,14.02684 c 0,-0.20917 -0.0831,-0.32894 -0.18471,-0.26615 -0.10158,0.0628 -0.18471,0.23392 -0.18471,0.38031 0,0.14639 0.0831,0.26616 0.18471,0.26616 0.10159,0 0.18471,-0.17115 0.18471,-0.38032 z m -0.0585,-0.94727 c -0.059,-0.14734 -0.10273,-0.10357 -0.11159,0.1116 -0.008,0.19471 0.0356,0.30381 0.097,0.24243 0.0614,-0.0614 0.0679,-0.22069 0.0146,-0.35403 z m 98.6338,-2.307 c 1.11233,-0.70793 1.30315,-0.9423 0.89481,-1.099 -0.22675,-0.087 -1.96051,0.7853 -2.66012,1.33838 -0.038,0.03 -0.0203,0.18141 0.0392,0.33646 0.13241,0.34505 0.44089,0.24213 1.72613,-0.57584 z m -4.07885,0.0242 c 0.15811,-0.62995 -0.0279,-0.77036 -0.4793,-0.36183 -0.47336,0.42839 -0.47562,0.8322 -0.005,0.8322 0.23803,0 0.40715,-0.16437 0.48395,-0.47037 z m -27.48642,-1.57546 c 1.03719,-0.0145 1.88581,-0.10046 1.88581,-0.1909 0,-0.0905 -0.23487,-0.16446 -0.52193,-0.16446 -0.3179,0 -0.69151,-0.18051 -0.95573,-0.46177 -0.54553,-0.58068 -0.7242,-0.57854 -1.19698,0.0144 -0.25329,0.31767 -0.59374,0.49335 -1.02283,0.52782 -1.69288,0.136 -1.60335,0.1141 -1.19728,0.2929 0.20318,0.0895 0.539,0.12797 0.74627,0.0856 0.20728,-0.0424 1.22547,-0.089 2.26267,-0.10353 z m -50.4787,-9.59072 c 0.18387,-0.20318 0.44611,-0.36942 0.58275,-0.36942 0.33665,0 0.98726,-0.67228 0.98726,-1.02014 0,-0.24995 -0.0491,-0.24916 -0.44028,0.007 -0.24215,0.15866 -0.51229,0.2676 -0.6003,0.24208 -0.48991,-0.14207 -1.51193,0.93077 -1.2659,1.32885 0.1678,0.27151 0.36607,0.22077 0.73647,-0.18853 z m 4.93944,-1.57593 c -0.22052,-0.39404 -0.50575,-0.0375 -0.33207,0.41506 0.0816,0.2126 0.17198,0.2419 0.31257,0.10131 0.13091,-0.13092 0.13751,-0.3055 0.0195,-0.51637 z m -25.07253,-1.01 c 0.0628,-0.10159 0.0261,-0.18471 -0.0815,-0.18471 -0.10758,0 -0.1956,0.0831 -0.1956,0.18471 0,0.10159 0.0367,0.18471 0.0815,0.18471 0.0448,0 0.13282,-0.0831 0.19561,-0.18471 z m 101.46483,-3.38835 c 0.0555,-0.28815 0.009,-0.30679 -0.32112,-0.12991 -0.46717,0.25002 -0.51186,0.61429 -0.0648,0.52819 0.17661,-0.034 0.35027,-0.21324 0.38591,-0.39828 z m 8.71305,-1.12608 c 0,-0.0448 -0.0831,-0.13282 -0.18472,-0.19561 -0.10158,-0.0627 -0.1847,-0.0261 -0.1847,0.0815 0,0.10758 0.0831,0.19561 0.1847,0.19561 0.1016,0 0.18472,-0.0366 0.18472,-0.0815 z m 47.09315,-1.06161 c 0.77601,-0.83295 0.46672,-1.04409 -1.73911,-1.18726 -1.30168,-0.0845 -1.44632,-0.0639 -1.16571,0.16549 0.17621,0.14407 0.26539,0.31692 0.1982,0.38411 -0.26481,0.26481 1.13832,0.97909 2.01396,1.02524 0.17383,0.009 0.48552,-0.16525 0.69266,-0.38758 z m 1.57721,0.21953 c -0.0628,-0.10159 -0.19237,-0.1847 -0.28796,-0.1847 -0.0956,0 -0.17381,0.0831 -0.17381,0.1847 0,0.10159 0.12958,0.18471 0.28796,0.18471 0.15838,0 0.2366,-0.0831 0.17381,-0.18471 z m -145.33383,6.71103 c -0.30099,-0.30099 -0.0953,-0.82933 0.3886,-0.99801 0.28146,-0.0981 0.59316,-0.36188 0.69266,-0.58616 0.0995,-0.22426 0.47182,-0.59449 0.82738,-0.82272 0.35557,-0.22823 0.78131,-0.54532 0.9461,-0.70463 0.57645,-0.5573 2.83192,-2.30656 2.97404,-2.30656 0.42948,0 -0.0184,0.61323 -1.34939,1.84778 -0.82105,0.76153 -2.05371,1.90409 -2.73922,2.53902 -1.21377,1.12418 -1.48595,1.28549 -1.74017,1.03128 z m 10.136,-3.37354 c -0.0584,-0.0946 -0.0305,-0.21876 0.0621,-0.276 0.0926,-0.0572 0.21603,0.0202 0.27428,0.17195 0.11483,0.29924 -0.16268,0.3851 -0.33637,0.10405 z"
       id="path1065" />
  </g>
</svg>
