<svg xmlns="http://www.w3.org/2000/svg" xmlns:xlink="http://www.w3.org/1999/xlink" ><g id="Number"><path  fill="rgb( 0, 0, 0 )"	d="M225.000,284.1000 L242.1000,300.000 L242.1000,380.000 L224.000,391.1000 L215.1000,409.000 L143.000,409.000 L134.000,391.1000 L112.1000,381.000 L112.1000,301.1000 L134.000,284.1000 L26.000,284.1000 L0.000,272.1000 L0.000,130.1000 L25.000,115.1000 L0.000,101.1000 L0.000,42.000 L25.000,20.1000 L30.1000,0.000 L128.000,0.000 L134.000,20.1000 L149.000,41.000 L149.000,76.000 L134.000,115.1000 L177.1000,31.1000 L221.1000,115.1000 L209.000,76.000 L209.000,41.000 L221.1000,21.000 L332.000,20.1000 L350.000,42.000 L350.000,73.000 L332.000,115.1000 L374.000,31.1000 L417.1000,115.1000 L417.1000,284.1000 L225.000,284.1000 ZM176.143,82.552 C175.309,82.001 174.345,81.724 173.249,81.724 C172.059,81.724 171.010,82.132 170.106,82.948 C169.629,83.668 169.308,84.341 169.142,84.964 C168.975,85.588 168.892,86.717 168.892,88.348 C168.892,88.972 168.892,89.597 168.892,90.220 C168.892,90.844 168.892,91.469 168.892,92.092 C168.412,92.428 167.884,92.644 167.308,92.740 C166.732,92.837 166.108,92.884 165.436,92.884 C165.100,92.884 164.740,92.884 164.356,92.884 C163.971,92.884 163.564,92.884 163.132,92.884 L162.052,92.884 L166.084,96.988 L173.788,96.772 L173.788,86.404 C173.887,85.828 174.099,85.444 174.421,85.252 C174.744,85.061 175.180,84.964 175.726,84.964 C176.025,84.964 176.472,84.964 177.070,84.964 C177.516,84.964 177.814,84.940 177.964,84.892 C177.583,83.884 176.975,83.104 176.143,82.552 ZM190.924,85.885 C190.395,83.725 189.099,81.768 187.036,80.015 C184.972,78.262 182.812,77.123 180.556,76.594 C182.572,77.940 183.928,79.644 184.624,81.708 C185.319,83.774 185.668,86.222 185.668,89.055 C185.715,89.488 185.812,90.160 185.956,91.072 C185.956,91.696 185.956,92.320 185.956,92.945 C185.956,98.227 183.964,103.604 179.980,109.078 C176.188,113.545 172.395,118.011 168.604,122.476 C169.564,122.764 170.404,122.908 171.124,122.908 C172.948,122.908 174.699,122.188 176.380,120.747 C177.772,119.307 179.703,117.327 182.176,114.806 C184.648,112.285 186.831,109.008 188.728,104.973 C190.624,100.940 191.572,96.666 191.572,92.152 C191.572,90.087 191.356,87.998 190.924,85.885 ZM187.468,123.916 L186.964,129.316 L161.260,129.892 L164.932,133.708 L190.996,134.212 C191.572,134.212 191.992,134.080 192.256,133.816 C192.519,133.553 192.652,132.988 192.652,132.124 L192.652,130.900 C192.652,130.421 192.676,130.061 192.724,129.820 C191.716,127.276 189.963,125.309 187.468,123.916 ZM194.066,183.763 L185.690,191.684 L183.007,192.280 L180.599,189.893 L181.858,187.072 L190.124,179.586 L188.920,166.1000 L178.847,174.595 L178.847,186.421 L177.642,188.808 L174.084,188.483 L173.153,186.584 L173.044,174.541 L163.080,167.054 L161.985,179.640 L170.197,187.398 L171.073,190.219 L168.938,192.497 L165.872,191.575 L157.606,183.492 L146.000,184.740 L153.390,194.342 L165.380,194.342 L167.515,195.807 L167.515,198.573 L164.887,199.821 L153.336,199.821 L146.547,209.369 L157.825,209.911 L166.146,202.696 L168.993,202.099 L171.018,204.378 L170.307,207.362 L161.821,214.902 L163.190,226.674 L173.153,219.459 L173.153,207.904 L174.577,205.788 L177.697,205.788 L178.901,208.501 L179.011,219.948 L189.029,227.000 L189.960,214.740 L181.420,207.145 L181.036,204.269 L183.610,202.045 L185.635,202.859 L194.285,210.617 L205.945,209.532 L198.391,199.767 L186.839,200.146 L184.266,198.736 L184.266,195.644 L187.113,194.179 L198.555,194.396 L205.1000,185.174 L194.066,183.763 ZM211.000,223.1000 C206.029,223.1000 202.000,228.029 202.000,232.1000 C202.000,237.971 206.029,241.1000 211.000,241.1000 C215.971,241.1000 219.1000,237.971 219.1000,232.1000 C219.1000,228.029 215.971,223.1000 211.000,223.1000 Z" /></g><g id="Door"><path  stroke="rgb( 255, 234, 53 )" stroke-width="0.007in" fill="none" 	d="M139.1000,144.1000 L211.000,144.1000 L211.000,277.1000 L141.000,277.1000 " /></g></svg>